<?xml version="1.0" encoding="UTF-8"?>
<svg width="34px" height="37px" viewBox="0 0 34 37" version="1.1" xmlns="http://www.w3.org/2000/svg" xmlns:xlink="http://www.w3.org/1999/xlink">
    <!-- Generator: Sketch 51.3 (57544) - http://www.bohemiancoding.com/sketch -->
    <title>dress-white</title>
    <desc>Created with Sketch.</desc>
    <defs></defs>
    <g id="Page-1" stroke="none" stroke-width="1" fill="none" fill-rule="evenodd">
        <g id="Clothing-Icons" transform="translate(-139.000000, -509.000000)" fill="#FFFFFF" fill-rule="nonzero">
            <path d="M172.411142,542.384954 C172.399209,542.308112 172.397039,542.292562 172.393875,542.277465 C172.377331,542.213188 172.372088,542.192576 172.365489,542.172326 C172.345781,542.117994 172.336921,542.094489 172.326887,542.071617 C172.326163,542.06999 170.111586,537.143527 165.683155,527.29223 C165.591577,527.073906 165.501897,526.843107 165.416194,526.605166 C164.81429,524.938854 164.514151,523.193801 164.524276,521.417559 C164.532503,519.869585 164.778852,518.343217 165.255277,516.872899 L171.35234,516.872899 C171.940413,516.87299 172.41729,516.396113 172.41729,515.80804 L172.41729,515.625968 C172.41729,512.288734 169.702301,509.573654 166.365066,509.573654 L157.398967,509.573654 L155.268977,509.573654 L145.388902,509.573654 C142.051667,509.573654 139.336678,512.288734 139.336678,515.625968 L139.336678,515.80804 C139.336678,516.396113 139.813555,516.87299 140.401628,516.87299 L146.499234,516.87299 C146.975839,518.343759 147.222188,519.869946 147.230234,521.418011 C147.240359,523.193801 146.94022,524.938944 146.337954,526.606251 C146.252523,526.843197 146.162843,527.073997 146.071265,527.29223 L139.430336,542.064113 C139.396435,542.151985 139.392186,542.162111 139.388841,542.172326 C139.367867,542.248355 139.363528,542.26282 139.360454,542.277465 C139.349063,542.343911 139.345447,542.364343 139.343187,542.384864 C139.33704,542.495337 139.336588,542.497958 139.336588,542.500851 C139.336588,544.307198 140.806182,545.776792 142.612529,545.776792 C143.463856,545.776792 144.240238,545.450165 144.823429,544.915792 C145.406621,545.450075 146.183003,545.776792 147.03433,545.776792 C147.885386,545.776792 148.661407,545.450165 149.244417,544.915973 C149.827608,545.450165 150.603901,545.776792 151.455228,545.776792 C152.306555,545.776792 153.082937,545.450165 153.666128,544.915792 C154.249319,545.450075 155.025702,545.776792 155.877029,545.776792 C156.728356,545.776792 157.504739,545.450165 158.08793,544.915792 C158.671121,545.450075 159.447504,545.776792 160.298831,545.776792 C161.149886,545.776792 161.925908,545.450165 162.508918,544.915973 C163.092109,545.450165 163.868401,545.776792 164.719728,545.776792 C165.571055,545.776792 166.347438,545.450165 166.930629,544.915792 C167.51382,545.450075 168.290203,545.776792 169.14153,545.776792 C170.947876,545.776792 172.417471,544.307198 172.417471,542.500851 C172.41277,542.407826 172.412408,542.396255 172.411142,542.384954 Z M167.088292,511.771175 C168.618547,512.057663 169.83899,513.235255 170.187223,514.74309 L166.014483,514.74309 L167.088292,511.771175 Z M141.566744,514.74309 C141.914978,513.235165 143.13533,512.057573 144.665676,511.771175 L145.739485,514.74309 L141.566744,514.74309 Z M159.059584,511.703644 C158.613263,513.033927 157.355664,513.995546 155.876939,513.995546 C154.398214,513.995546 153.140705,513.034108 152.694294,511.703644 L159.059584,511.703644 Z M146.905958,511.703644 L150.494784,511.703644 C150.992002,514.220921 153.21583,516.125446 155.876939,516.125446 C158.538047,516.125446 160.761785,514.221012 161.259093,511.703644 L164.84792,511.703644 L163.413311,515.674243 C162.867547,517.185694 162.538932,518.753195 162.432256,520.347094 L149.321712,520.347094 C149.214855,518.753015 148.88633,517.185423 148.340295,515.673429 L146.905958,511.703644 Z M148.019635,528.153321 C148.02316,528.145546 148.026415,528.137771 148.02985,528.129816 C148.036631,528.113543 148.04323,528.096186 148.050101,528.079732 L155.877029,528.079732 C156.465102,528.079732 156.941979,527.602855 156.941979,527.014783 C156.941979,526.42671 156.465102,525.949833 155.877029,525.949833 L148.774863,525.949833 C149.079974,524.81464 149.266566,523.65332 149.332832,522.476994 L162.421407,522.476994 C162.514704,524.134537 162.846303,525.762065 163.412046,527.327849 C163.511489,527.604121 163.616538,527.873884 163.724298,528.129906 C163.727643,528.137771 163.730988,528.145546 163.734514,528.153411 L165.263232,531.553927 L146.490826,531.553927 L148.019635,528.153321 Z M145.533185,533.683917 L166.220693,533.683917 L167.782046,537.156847 L143.971831,537.156847 L145.533185,533.683917 Z M169.141349,543.646802 C168.509521,543.646802 167.995398,543.13277 167.995398,542.500851 C167.995398,541.912779 167.518521,541.435902 166.930448,541.435902 C166.342375,541.435902 165.865498,541.912779 165.865498,542.500851 C165.865498,543.132679 165.351466,543.646802 164.719547,543.646802 C164.087539,543.646802 163.573506,543.13277 163.573506,542.500851 C163.573506,541.912779 163.096629,541.435902 162.508556,541.435902 C161.920483,541.435902 161.443606,541.912779 161.443606,542.500851 C161.443606,543.132679 160.930026,543.646802 160.29874,543.646802 C159.666912,543.646802 159.152789,543.13277 159.152789,542.500851 C159.152789,541.912779 158.675912,541.435902 158.08784,541.435902 C157.499767,541.435902 157.02289,541.912779 157.02289,542.500851 C157.02289,543.132679 156.508857,543.646802 155.876939,543.646802 C155.245111,543.646802 154.730988,543.13277 154.730988,542.500851 C154.730988,541.912779 154.254111,541.435902 153.666038,541.435902 C153.077965,541.435902 152.601088,541.912779 152.601088,542.500851 C152.601088,543.132679 152.087056,543.646802 151.455137,543.646802 C150.823128,543.646802 150.309096,543.13277 150.309096,542.500851 C150.309096,541.912779 149.832219,541.435902 149.244146,541.435902 C148.656073,541.435902 148.179196,541.912779 148.179196,542.500851 C148.179196,543.132679 147.665616,543.646802 147.03433,543.646802 C146.402502,543.646802 145.888379,543.13277 145.888379,542.500851 C145.888379,541.912779 145.411502,541.435902 144.823429,541.435902 C144.235357,541.435902 143.75848,541.912779 143.75848,542.500851 C143.75848,543.132679 143.244447,543.646802 142.612529,543.646802 C142.04561,543.646802 141.57479,543.232484 141.483754,542.69106 L143.014281,539.286837 L168.739687,539.286837 L170.270214,542.69106 C170.179178,543.232575 169.708267,543.646802 169.141349,543.646802 Z M160.40858,525.9021 C160.996291,525.9021 161.47353,526.379248 161.47353,526.96705 C161.47353,527.554851 160.996472,528.031999 160.40858,528.031999 C159.819694,528.031999 159.34363,527.554851 159.34363,526.96705 C159.34363,526.379248 159.819603,525.9021 160.40858,525.9021 Z" id="dress-white"></path>
        </g>
    </g>
</svg>