<?xml version="1.0" encoding="UTF-8"?>
<svg width="34px" height="37px" viewBox="0 0 34 37" version="1.1" xmlns="http://www.w3.org/2000/svg" xmlns:xlink="http://www.w3.org/1999/xlink">
    <!-- Generator: Sketch 51.3 (57544) - http://www.bohemiancoding.com/sketch -->
    <title>dress</title>
    <desc>Created with Sketch.</desc>
    <defs></defs>
    <g id="Page-1" stroke="none" stroke-width="1" fill="none" fill-rule="evenodd">
        <g id="Clothing-Icons" transform="translate(-139.000000, -225.000000)" fill="#435761" fill-rule="nonzero">
            <path d="M172.411142,258.390331 C172.399209,258.313488 172.397039,258.297939 172.393875,258.282841 C172.377331,258.218565 172.372088,258.197953 172.365489,258.177702 C172.345781,258.12337 172.336921,258.099865 172.326887,258.076993 C172.326163,258.075366 170.111586,253.148904 165.683155,243.297606 C165.591577,243.079282 165.501897,242.848483 165.416194,242.610542 C164.81429,240.94423 164.514151,239.199177 164.524276,237.422935 C164.532503,235.874961 164.778852,234.348593 165.255277,232.878275 L171.35234,232.878275 C171.940413,232.878366 172.41729,232.401489 172.41729,231.813416 L172.41729,231.631344 C172.41729,228.29411 169.702301,225.57903 166.365066,225.57903 L157.398967,225.57903 L155.268977,225.57903 L145.388902,225.57903 C142.051667,225.57903 139.336678,228.29411 139.336678,231.631344 L139.336678,231.813416 C139.336678,232.401489 139.813555,232.878366 140.401628,232.878366 L146.499234,232.878366 C146.975839,234.349135 147.222188,235.875322 147.230234,237.423387 C147.240359,239.199177 146.94022,240.94432 146.337954,242.611627 C146.252523,242.848573 146.162843,243.079373 146.071265,243.297606 L139.430336,258.06949 C139.396435,258.157362 139.392186,258.167487 139.388841,258.177702 C139.367867,258.253731 139.363528,258.268196 139.360454,258.282841 C139.349063,258.349288 139.345447,258.369719 139.343187,258.39024 C139.33704,258.500713 139.336588,258.503335 139.336588,258.506227 C139.336588,260.312574 140.806182,261.782168 142.612529,261.782168 C143.463856,261.782168 144.240238,261.455542 144.823429,260.921168 C145.406621,261.455451 146.183003,261.782168 147.03433,261.782168 C147.885386,261.782168 148.661407,261.455542 149.244417,260.921349 C149.827608,261.455542 150.603901,261.782168 151.455228,261.782168 C152.306555,261.782168 153.082937,261.455542 153.666128,260.921168 C154.249319,261.455451 155.025702,261.782168 155.877029,261.782168 C156.728356,261.782168 157.504739,261.455542 158.08793,260.921168 C158.671121,261.455451 159.447504,261.782168 160.298831,261.782168 C161.149886,261.782168 161.925908,261.455542 162.508918,260.921349 C163.092109,261.455542 163.868401,261.782168 164.719728,261.782168 C165.571055,261.782168 166.347438,261.455542 166.930629,260.921168 C167.51382,261.455451 168.290203,261.782168 169.14153,261.782168 C170.947876,261.782168 172.417471,260.312574 172.417471,258.506227 C172.41277,258.413203 172.412408,258.401631 172.411142,258.390331 Z M167.088292,227.776551 C168.618547,228.063039 169.83899,229.240631 170.187223,230.748466 L166.014483,230.748466 L167.088292,227.776551 Z M141.566744,230.748466 C141.914978,229.240541 143.13533,228.062949 144.665676,227.776551 L145.739485,230.748466 L141.566744,230.748466 Z M159.059584,227.70902 C158.613263,229.039303 157.355664,230.000922 155.876939,230.000922 C154.398214,230.000922 153.140705,229.039484 152.694294,227.70902 L159.059584,227.70902 Z M146.905958,227.70902 L150.494784,227.70902 C150.992002,230.226297 153.21583,232.130822 155.876939,232.130822 C158.538047,232.130822 160.761785,230.226388 161.259093,227.70902 L164.84792,227.70902 L163.413311,231.679619 C162.867547,233.19107 162.538932,234.758572 162.432256,236.35247 L149.321712,236.35247 C149.214855,234.758391 148.88633,233.190799 148.340295,231.678806 L146.905958,227.70902 Z M148.019635,244.158697 C148.02316,244.150922 148.026415,244.143147 148.02985,244.135192 C148.036631,244.118919 148.04323,244.101562 148.050101,244.085108 L155.877029,244.085108 C156.465102,244.085108 156.941979,243.608232 156.941979,243.020159 C156.941979,242.432086 156.465102,241.955209 155.877029,241.955209 L148.774863,241.955209 C149.079974,240.820016 149.266566,239.658696 149.332832,238.48237 L162.421407,238.48237 C162.514704,240.139913 162.846303,241.767442 163.412046,243.333225 C163.511489,243.609497 163.616538,243.87926 163.724298,244.135282 C163.727643,244.143147 163.730988,244.150922 163.734514,244.158787 L165.263232,247.559304 L146.490826,247.559304 L148.019635,244.158697 Z M145.533185,249.689293 L166.220693,249.689293 L167.782046,253.162223 L143.971831,253.162223 L145.533185,249.689293 Z M169.141349,259.652179 C168.509521,259.652179 167.995398,259.138146 167.995398,258.506227 C167.995398,257.918155 167.518521,257.441278 166.930448,257.441278 C166.342375,257.441278 165.865498,257.918155 165.865498,258.506227 C165.865498,259.138055 165.351466,259.652179 164.719547,259.652179 C164.087539,259.652179 163.573506,259.138146 163.573506,258.506227 C163.573506,257.918155 163.096629,257.441278 162.508556,257.441278 C161.920483,257.441278 161.443606,257.918155 161.443606,258.506227 C161.443606,259.138055 160.930026,259.652179 160.29874,259.652179 C159.666912,259.652179 159.152789,259.138146 159.152789,258.506227 C159.152789,257.918155 158.675912,257.441278 158.08784,257.441278 C157.499767,257.441278 157.02289,257.918155 157.02289,258.506227 C157.02289,259.138055 156.508857,259.652179 155.876939,259.652179 C155.245111,259.652179 154.730988,259.138146 154.730988,258.506227 C154.730988,257.918155 154.254111,257.441278 153.666038,257.441278 C153.077965,257.441278 152.601088,257.918155 152.601088,258.506227 C152.601088,259.138055 152.087056,259.652179 151.455137,259.652179 C150.823128,259.652179 150.309096,259.138146 150.309096,258.506227 C150.309096,257.918155 149.832219,257.441278 149.244146,257.441278 C148.656073,257.441278 148.179196,257.918155 148.179196,258.506227 C148.179196,259.138055 147.665616,259.652179 147.03433,259.652179 C146.402502,259.652179 145.888379,259.138146 145.888379,258.506227 C145.888379,257.918155 145.411502,257.441278 144.823429,257.441278 C144.235357,257.441278 143.75848,257.918155 143.75848,258.506227 C143.75848,259.138055 143.244447,259.652179 142.612529,259.652179 C142.04561,259.652179 141.57479,259.237861 141.483754,258.696436 L143.014281,255.292213 L168.739687,255.292213 L170.270214,258.696436 C170.179178,259.237951 169.708267,259.652179 169.141349,259.652179 Z M160.40858,241.907476 C160.996291,241.907476 161.47353,242.384624 161.47353,242.972426 C161.47353,243.560227 160.996472,244.037376 160.40858,244.037376 C159.819694,244.037376 159.34363,243.560227 159.34363,242.972426 C159.34363,242.384624 159.819603,241.907476 160.40858,241.907476 Z" id="dress"></path>
        </g>
    </g>
</svg>