<?xml version="1.0" encoding="UTF-8"?>
<svg width="42px" height="45px" viewBox="0 0 42 45" version="1.1" xmlns="http://www.w3.org/2000/svg" xmlns:xlink="http://www.w3.org/1999/xlink">
    <!-- Generator: Sketch 51.3 (57544) - http://www.bohemiancoding.com/sketch -->
    <title>hat</title>
    <desc>Created with Sketch.</desc>
    <defs></defs>
    <g id="Page-1" stroke="none" stroke-width="1" fill="none" fill-rule="evenodd">
        <g id="Clothing-Icons" transform="translate(-33.000000, -641.000000)" fill="#435761" fill-rule="nonzero">
            <path d="M71.9194669,674.332797 L71.8646353,674.332797 L71.8646353,667.790706 C71.8646353,666.974035 71.8083651,666.149993 71.6971786,665.341627 C71.6967556,665.338661 71.6962479,665.335526 71.6958248,665.33256 C71.6952325,665.328662 71.6946401,665.324764 71.6941324,665.320867 C71.1096843,661.115836 69.0259114,657.250167 65.8246893,654.433933 C63.6062911,652.4825 60.9553319,651.132172 58.1184696,650.475311 C58.9246137,649.544503 59.4141218,648.331868 59.4141218,647.006029 C59.4141218,644.081081 57.037744,641.7014 54.1167727,641.7014 C51.1958013,641.7014 48.8194236,644.081081 48.8194236,647.006114 C48.8194236,648.332207 49.3092701,649.545181 50.1157527,650.476073 C43.0284201,652.12187 37.4653743,658.043027 36.5132663,665.521094 C36.512674,665.524992 36.5122509,665.52889 36.5117432,665.532787 C36.4171416,666.278874 36.3690793,667.038603 36.3690793,667.79079 L36.3690793,674.332881 L36.3140784,674.332881 C34.9936335,674.332881 33.9192542,675.408585 33.9192542,676.730866 L33.9192542,682.687441 C33.9192542,684.009722 34.9936335,685.085426 36.3140784,685.085426 L71.9195516,685.085426 C73.2399965,685.085426 74.3143758,684.009722 74.3143758,682.687441 L74.3143758,676.730781 C74.3142065,675.4085 73.2399118,674.332797 71.9194669,674.332797 Z M54.1167727,643.992873 C55.7760232,643.992873 57.1258301,645.344641 57.1258301,647.006114 C57.1258301,648.666993 55.7759385,650.018253 54.1167727,650.018253 C52.4576068,650.018253 51.1077152,648.666993 51.1077152,647.006114 C51.1077152,645.344556 52.4575222,643.992873 54.1167727,643.992873 Z M54.1167727,652.309641 C61.5766729,652.309641 67.9999329,657.720019 69.3250317,664.999384 L64.7912645,668.430281 L60.1509647,664.804495 C59.7373579,664.481149 59.1569714,664.481149 58.7431953,664.804495 L54.1155034,668.421299 L49.4877269,664.804495 C49.0741201,664.481149 48.4935643,664.481149 48.0798729,664.804495 L43.4256113,668.442059 L38.8813516,665.154194 C40.1423109,657.785773 46.5763172,652.309641 54.1167727,652.309641 Z M38.6572017,667.819007 L42.7822699,670.803523 C42.9826425,670.948419 43.2176233,671.020528 43.4522656,671.020528 C43.7011236,671.020528 43.9497277,670.939437 44.156108,670.778018 L48.7837999,667.161214 L53.4115764,670.778018 C53.8251832,671.101364 54.405739,671.101364 54.8194304,670.778018 L59.4472069,667.161214 L64.0761681,670.778187 C64.4846979,671.097636 65.0564535,671.101703 65.4698065,670.788949 L69.5743974,667.682924 C69.5746513,667.718936 69.576259,667.754863 69.576259,667.790875 L69.576259,674.332966 L38.6572017,674.332966 L38.6572017,667.819007 Z M72.0259995,682.687441 L72.0259148,682.687441 C72.0259148,682.746247 71.978191,682.793953 71.9193823,682.793953 L36.3140784,682.793953 C36.2552697,682.793953 36.2075458,682.746162 36.2075458,682.687441 L36.2075458,676.730781 C36.2075458,676.673077 36.2562851,676.62427 36.3140784,676.62427 L71.9195516,676.62427 C71.9773448,676.62427 72.0260841,676.673077 72.0260841,676.730781 L72.0260841,682.687441 L72.0259995,682.687441 Z M56.8707105,655.627672 C57.5022902,655.627672 58.014814,656.140993 58.014814,656.773366 C58.014814,657.405739 57.5022902,657.91906 56.8707105,657.91906 C56.2392154,657.91906 55.726607,657.405824 55.726607,656.773366 C55.726607,656.140993 56.2391308,655.627672 56.8707105,655.627672 Z M66.1768643,664.551648 C66.3406824,665.162752 65.9787764,665.791227 65.3684356,665.955273 C65.2690108,665.981965 65.169163,665.994675 65.0710922,665.994675 C64.5660992,665.994675 64.1039224,665.657432 63.9667586,665.145721 C63.3175786,662.724265 61.7980304,660.62802 59.6882801,659.242951 C59.1598483,658.896048 59.0123613,658.18572 59.3586978,657.656723 C59.7052881,657.127556 60.4143768,656.979695 60.9428932,657.326597 C63.5231974,659.020438 65.3818896,661.586366 66.1768643,664.551648 Z" id="hat"></path>
        </g>
    </g>
</svg>