<?xml version="1.0" encoding="UTF-8"?>
<svg width="38px" height="41px" viewBox="0 0 38 41" version="1.1" xmlns="http://www.w3.org/2000/svg" xmlns:xlink="http://www.w3.org/1999/xlink">
    <!-- Generator: sketchtool 51.3 (57544) - http://www.bohemiancoding.com/sketch -->
    <title>E5C6EE8C-A3CF-4955-A6CD-01EABFA02217</title>
    <desc>Created with sketchtool.</desc>
    <defs></defs>
    <g id="Page-1" stroke="none" stroke-width="1" fill="none" fill-rule="evenodd">
        <g id="Add-Garment---Clothing-Icons" transform="translate(-37.000000, -270.000000)" fill="#435761" fill-rule="nonzero">
            <path d="M70.6717984,275.154371 L62.1067968,271.003851 C62.1037981,271.00239 62.1006456,271.001391 62.09757,271.000007 C62.0899579,270.996393 62.082192,270.993164 62.0745799,270.989857 C62.0611242,270.98386 62.047284,270.978631 62.0335976,270.973326 C62.0308295,270.97225 62.0282153,270.971096 62.0254472,270.970097 C62.0177582,270.967175 62.0102999,270.963561 62.0024571,270.960793 C61.9967673,270.958871 61.9909237,270.957564 61.9852338,270.955718 C61.9719318,270.951336 61.9584761,270.947568 61.9449435,270.9438 C61.9318722,270.940187 61.9189547,270.935958 61.9057296,270.932882 C61.8991939,270.931344 61.8925045,270.930114 61.8859689,270.928653 C61.875435,270.926423 61.8647473,270.924809 61.8540596,270.922886 C61.8377589,270.919964 61.8213813,270.916889 61.8050038,270.91489 C61.7970841,270.91389 61.7891644,270.91266 61.7812448,270.911891 C61.7765545,270.91143 61.7717873,270.911507 61.767097,270.911122 C61.7648672,270.910891 61.7626374,270.910891 61.7603307,270.910738 C61.7413389,270.9092 61.7222702,270.90797 61.7032015,270.907508 C61.6952818,270.907124 61.687439,270.90597 61.6794425,270.90597 L49.3805114,270.90597 C49.3738988,270.90597 49.3672863,270.90697 49.3607506,270.907047 C49.3417588,270.907431 49.3230746,270.908815 49.3042365,270.910276 C49.2858598,270.911737 49.2676369,270.913275 49.249414,270.915736 C49.2301915,270.91835 49.2112766,270.92181 49.1922848,270.925501 C49.1746001,270.929037 49.1569923,270.932728 49.1394614,270.937111 C49.120854,270.941878 49.1024773,270.94726 49.0843313,270.953181 C49.0669542,270.958717 49.0497308,270.964638 49.0325844,270.971173 C49.0148228,270.977939 48.9973688,270.985244 48.9799916,270.993087 C48.9714569,270.996931 48.9626145,270.999699 48.9541566,271.003851 L40.389155,275.154371 C38.34419,276.145482 37.0229132,278.253497 37.0229132,280.524979 L37.0229132,309.295967 C37.0229132,309.835888 37.4606477,310.273699 38.0006457,310.273699 L44.9034405,310.273699 L66.157436,310.273699 L73.0602308,310.273699 C73.6002289,310.273699 74.0379633,309.835888 74.0379633,309.295967 L74.0379633,280.524903 C74.0380402,278.253497 72.7167634,276.145482 70.6717984,275.154371 Z M61.8227653,273.553599 L65.3663153,277.689432 L57.775048,283.617954 L56.7780161,282.003342 L61.8227653,273.553599 Z M59.9586455,272.861436 L55.6202073,280.128074 L51.1333714,272.861436 L59.9586455,272.861436 Z M49.2520283,273.536606 L54.7919488,282.508817 C54.7934097,282.511354 54.7951013,282.513892 54.7966391,282.516429 L56.4472355,285.189662 L51.481606,281.696475 L45.7287772,277.649449 L49.2520283,273.536606 Z M43.925708,308.31808 L38.9783783,308.31808 L38.9783783,306.624656 L43.925708,306.624656 L43.925708,308.31808 Z M58.8059115,308.318157 L45.8811731,308.318157 L45.8811731,286.632963 C45.8811731,286.093042 45.4434386,285.65523 44.9034405,285.65523 C44.3634425,285.65523 43.925708,286.093042 43.925708,286.632963 L43.925708,304.669268 L38.9783783,304.669268 L38.9783783,290.296538 L40.4078392,290.296538 C40.9478373,290.296538 41.3855718,289.858727 41.3855718,289.318806 C41.3855718,288.778884 40.9478373,288.341073 40.4078392,288.341073 L38.9783783,288.341073 L38.9783783,287.167809 L40.4078392,287.167809 C40.9478373,287.167809 41.3855718,286.729998 41.3855718,286.190077 C41.3855718,285.650156 40.9478373,285.212344 40.4078392,285.212344 L38.9783783,285.212344 L38.9783783,284.039081 L40.4078392,284.039081 C40.9478373,284.039081 41.3855718,283.601269 41.3855718,283.061348 C41.3855718,282.521427 40.9478373,282.083616 40.4078392,282.083616 L38.9783783,282.083616 L38.9783783,280.524903 C38.9783783,278.997868 39.8668416,277.580556 41.2419414,276.913997 L45.5880686,274.807828 L43.5440263,277.194107 C43.3647959,277.403325 43.2822161,277.678437 43.3164321,277.951857 C43.3506481,278.225278 43.4986612,278.471326 43.7240257,278.62995 L50.3566292,283.295786 L58.8059115,289.239609 L58.8059115,308.318157 Z M66.1575129,288.569052 C65.6175148,288.569052 65.1797803,289.006863 65.1797803,289.546784 L65.1797803,308.31808 L60.7613765,308.31808 L60.7613765,288.732058 C60.7613765,288.726676 60.7603001,288.721294 60.7603001,288.715912 C60.759685,288.682157 60.7573783,288.648633 60.75338,288.615339 C60.7520729,288.60519 60.7511502,288.595041 60.7495355,288.584891 C60.7435381,288.545523 60.7356184,288.506463 60.7249307,288.468018 C60.7236236,288.463405 60.721932,288.459022 60.720548,288.454563 C60.7102447,288.419962 60.6978655,288.386054 60.6838715,288.352607 C60.680027,288.34361 60.6762594,288.334614 60.6721073,288.325695 C60.6554222,288.289019 60.6370455,288.252957 60.6156701,288.218357 C60.6142092,288.215896 60.6127483,288.21359 60.6112874,288.211129 L58.8088333,285.292002 L67.3764492,278.600962 C67.5868969,278.436572 67.7209161,278.193446 67.74752,277.927714 C67.774124,277.661982 67.6908522,277.39702 67.5171578,277.194338 L65.4724235,274.807751 L69.8192427,276.914151 C71.1941118,277.580556 72.0825751,278.997868 72.0825751,280.524903 L72.0825751,282.083385 L70.6531142,282.083385 C70.1131161,282.083385 69.6753816,282.521196 69.6753816,283.061117 C69.6753816,283.601039 70.1131161,284.03885 70.6531142,284.03885 L72.0825751,284.03885 L72.0825751,285.212114 L70.6531142,285.212114 C70.1131161,285.212114 69.6753816,285.649925 69.6753816,286.189846 C69.6753816,286.729767 70.1131161,287.167579 70.6531142,287.167579 L72.0825751,287.167579 L72.0825751,288.340842 L70.6531142,288.340842 C70.1131161,288.340842 69.6753816,288.778654 69.6753816,289.318575 C69.6753816,289.858496 70.1131161,290.296307 70.6531142,290.296307 L72.0825751,290.296307 L72.0825751,304.669114 L67.1352454,304.669114 L67.1352454,289.546784 C67.1352454,289.006863 66.697511,288.569052 66.1575129,288.569052 Z M72.0825751,308.318157 L67.1352454,308.318157 L67.1352454,306.624733 L72.0825751,306.624733 L72.0825751,308.318157 Z M56.5082092,291.236979 C57.0478998,291.236979 57.4859418,291.675021 57.4859418,292.214712 C57.4859418,292.755402 57.0478998,293.192444 56.5082092,293.192444 C55.9685187,293.192444 55.5304767,292.755402 55.5304767,292.214712 C55.5304767,291.675021 55.9685187,291.236979 56.5082092,291.236979 Z M66.1575129,285.655153 C66.6972034,285.655153 67.1352454,286.093119 67.1352454,286.632886 C67.1352454,287.173576 66.6972034,287.610619 66.1575129,287.610619 C65.6178224,287.610619 65.1797803,287.173576 65.1797803,286.632886 C65.1797803,286.093195 65.6178224,285.655153 66.1575129,285.655153 Z M56.5082092,295.539048 C57.0478998,295.539048 57.4859418,295.97709 57.4859418,296.516781 C57.4859418,297.057471 57.0478998,297.494513 56.5082092,297.494513 C55.9685187,297.494513 55.5304767,297.057471 55.5304767,296.516781 C55.5304767,295.97709 55.9685187,295.539048 56.5082092,295.539048 Z M56.5082092,299.841118 C57.0478998,299.841118 57.4859418,300.279083 57.4859418,300.81885 C57.4859418,301.35954 57.0478998,301.796583 56.5082092,301.796583 C55.9685187,301.796583 55.5304767,301.35954 55.5304767,300.81885 C55.5304767,300.27916 55.9685187,299.841118 56.5082092,299.841118 Z M56.5082092,304.14311 C57.0478998,304.14311 57.4859418,304.581152 57.4859418,305.120843 C57.4859418,305.661533 57.0478998,306.098575 56.5082092,306.098575 C55.9685187,306.098575 55.5304767,305.661533 55.5304767,305.120843 C55.5304767,304.581152 55.9685187,304.14311 56.5082092,304.14311 Z" id="jacket"></path>
        </g>
    </g>
</svg>