<?xml version="1.0" encoding="UTF-8"?>
<svg width="38px" height="40px" viewBox="0 0 38 40" version="1.1" xmlns="http://www.w3.org/2000/svg" xmlns:xlink="http://www.w3.org/1999/xlink">
    <!-- Generator: Sketch 51.3 (57544) - http://www.bohemiancoding.com/sketch -->
    <title>jacket-white</title>
    <desc>Created with Sketch.</desc>
    <defs></defs>
    <g id="Page-1" stroke="none" stroke-width="1" fill="none" fill-rule="evenodd">
        <g id="Clothing-Icons" transform="translate(-37.000000, -508.000000)" fill="#FFFFFF" fill-rule="nonzero">
            <path d="M70.6717984,512.302507 L62.1067968,508.151988 C62.1037981,508.150527 62.1006456,508.149528 62.09757,508.148144 C62.0899579,508.14453 62.082192,508.1413 62.0745799,508.137994 C62.0611242,508.131997 62.047284,508.126768 62.0335976,508.121463 C62.0308295,508.120386 62.0282153,508.119233 62.0254472,508.118233 C62.0177582,508.115312 62.0102999,508.111698 62.0024571,508.10893 C61.9967673,508.107007 61.9909237,508.1057 61.9852338,508.103855 C61.9719318,508.099472 61.9584761,508.095705 61.9449435,508.091937 C61.9318722,508.088323 61.9189547,508.084094 61.9057296,508.081019 C61.8991939,508.079481 61.8925045,508.078251 61.8859689,508.07679 C61.875435,508.07456 61.8647473,508.072945 61.8540596,508.071023 C61.8377589,508.068101 61.8213813,508.065026 61.8050038,508.063026 C61.7970841,508.062027 61.7891644,508.060797 61.7812448,508.060028 C61.7765545,508.059566 61.7717873,508.059643 61.767097,508.059259 C61.7648672,508.059028 61.7626374,508.059028 61.7603307,508.058874 C61.7413389,508.057337 61.7222702,508.056106 61.7032015,508.055645 C61.6952818,508.055261 61.687439,508.054107 61.6794425,508.054107 L49.3805114,508.054107 C49.3738988,508.054107 49.3672863,508.055107 49.3607506,508.055184 C49.3417588,508.055568 49.3230746,508.056952 49.3042365,508.058413 C49.2858598,508.059874 49.2676369,508.061412 49.249414,508.063872 C49.2301915,508.066486 49.2112766,508.069947 49.1922848,508.073637 C49.1746001,508.077174 49.1569923,508.080865 49.1394614,508.085248 C49.120854,508.090015 49.1024773,508.095397 49.0843313,508.101318 C49.0669542,508.106854 49.0497308,508.112774 49.0325844,508.11931 C49.0148228,508.126076 48.9973688,508.133381 48.9799916,508.141223 C48.9714569,508.145068 48.9626145,508.147836 48.9541566,508.151988 L40.389155,512.302507 C38.34419,513.293619 37.0229132,515.401633 37.0229132,517.673116 L37.0229132,546.444103 C37.0229132,546.984024 37.4606477,547.421836 38.0006457,547.421836 L44.9034405,547.421836 L66.157436,547.421836 L73.0602308,547.421836 C73.6002289,547.421836 74.0379633,546.984024 74.0379633,546.444103 L74.0379633,517.673039 C74.0380402,515.401633 72.7167634,513.293619 70.6717984,512.302507 Z M61.8227653,510.701736 L65.3663153,514.837569 L57.775048,520.766091 L56.7780161,519.151479 L61.8227653,510.701736 Z M59.9586455,510.009572 L55.6202073,517.27621 L51.1333714,510.009572 L59.9586455,510.009572 Z M49.2520283,510.684743 L54.7919488,519.656954 C54.7934097,519.659491 54.7951013,519.662028 54.7966391,519.664566 L56.4472355,522.337798 L51.481606,518.844611 L45.7287772,514.797586 L49.2520283,510.684743 Z M43.925708,545.466217 L38.9783783,545.466217 L38.9783783,543.772793 L43.925708,543.772793 L43.925708,545.466217 Z M58.8059115,545.466294 L45.8811731,545.466294 L45.8811731,523.7811 C45.8811731,523.241178 45.4434386,522.803367 44.9034405,522.803367 C44.3634425,522.803367 43.925708,523.241178 43.925708,523.7811 L43.925708,541.817405 L38.9783783,541.817405 L38.9783783,527.444675 L40.4078392,527.444675 C40.9478373,527.444675 41.3855718,527.006863 41.3855718,526.466942 C41.3855718,525.927021 40.9478373,525.48921 40.4078392,525.48921 L38.9783783,525.48921 L38.9783783,524.315946 L40.4078392,524.315946 C40.9478373,524.315946 41.3855718,523.878135 41.3855718,523.338214 C41.3855718,522.798292 40.9478373,522.360481 40.4078392,522.360481 L38.9783783,522.360481 L38.9783783,521.187217 L40.4078392,521.187217 C40.9478373,521.187217 41.3855718,520.749406 41.3855718,520.209485 C41.3855718,519.669564 40.9478373,519.231752 40.4078392,519.231752 L38.9783783,519.231752 L38.9783783,517.673039 C38.9783783,516.146005 39.8668416,514.728693 41.2419414,514.062134 L45.5880686,511.955964 L43.5440263,514.342244 C43.3647959,514.551461 43.2822161,514.826574 43.3164321,515.099994 C43.3506481,515.373415 43.4986612,515.619463 43.7240257,515.778087 L50.3566292,520.443922 L58.8059115,526.387746 L58.8059115,545.466294 Z M66.1575129,525.717188 C65.6175148,525.717188 65.1797803,526.155 65.1797803,526.694921 L65.1797803,545.466217 L60.7613765,545.466217 L60.7613765,525.880195 C60.7613765,525.874813 60.7603001,525.869431 60.7603001,525.864048 C60.759685,525.830294 60.7573783,525.79677 60.75338,525.763476 C60.7520729,525.753327 60.7511502,525.743177 60.7495355,525.733028 C60.7435381,525.69366 60.7356184,525.6546 60.7249307,525.616155 C60.7236236,525.611542 60.721932,525.607159 60.720548,525.602699 C60.7102447,525.568099 60.6978655,525.53419 60.6838715,525.500743 C60.680027,525.491747 60.6762594,525.482751 60.6721073,525.473832 C60.6554222,525.437155 60.6370455,525.401094 60.6156701,525.366493 C60.6142092,525.364033 60.6127483,525.361726 60.6112874,525.359266 L58.8088333,522.440139 L67.3764492,515.749099 C67.5868969,515.584708 67.7209161,515.341582 67.74752,515.075851 C67.774124,514.810119 67.6908522,514.545156 67.5171578,514.342474 L65.4724235,511.955887 L69.8192427,514.062287 C71.1941118,514.728693 72.0825751,516.146005 72.0825751,517.673039 L72.0825751,519.231522 L70.6531142,519.231522 C70.1131161,519.231522 69.6753816,519.669333 69.6753816,520.209254 C69.6753816,520.749175 70.1131161,521.186987 70.6531142,521.186987 L72.0825751,521.186987 L72.0825751,522.36025 L70.6531142,522.36025 C70.1131161,522.36025 69.6753816,522.798062 69.6753816,523.337983 C69.6753816,523.877904 70.1131161,524.315715 70.6531142,524.315715 L72.0825751,524.315715 L72.0825751,525.488979 L70.6531142,525.488979 C70.1131161,525.488979 69.6753816,525.92679 69.6753816,526.466712 C69.6753816,527.006633 70.1131161,527.444444 70.6531142,527.444444 L72.0825751,527.444444 L72.0825751,541.817251 L67.1352454,541.817251 L67.1352454,526.694921 C67.1352454,526.155 66.697511,525.717188 66.1575129,525.717188 Z M72.0825751,545.466294 L67.1352454,545.466294 L67.1352454,543.77287 L72.0825751,543.77287 L72.0825751,545.466294 Z M56.5082092,528.385116 C57.0478998,528.385116 57.4859418,528.823158 57.4859418,529.362848 C57.4859418,529.903538 57.0478998,530.340581 56.5082092,530.340581 C55.9685187,530.340581 55.5304767,529.903538 55.5304767,529.362848 C55.5304767,528.823158 55.9685187,528.385116 56.5082092,528.385116 Z M66.1575129,522.80329 C66.6972034,522.80329 67.1352454,523.241255 67.1352454,523.781023 C67.1352454,524.321713 66.6972034,524.758755 66.1575129,524.758755 C65.6178224,524.758755 65.1797803,524.321713 65.1797803,523.781023 C65.1797803,523.241332 65.6178224,522.80329 66.1575129,522.80329 Z M56.5082092,532.687185 C57.0478998,532.687185 57.4859418,533.125227 57.4859418,533.664918 C57.4859418,534.205608 57.0478998,534.64265 56.5082092,534.64265 C55.9685187,534.64265 55.5304767,534.205608 55.5304767,533.664918 C55.5304767,533.125227 55.9685187,532.687185 56.5082092,532.687185 Z M56.5082092,536.989254 C57.0478998,536.989254 57.4859418,537.427219 57.4859418,537.966987 C57.4859418,538.507677 57.0478998,538.944719 56.5082092,538.944719 C55.9685187,538.944719 55.5304767,538.507677 55.5304767,537.966987 C55.5304767,537.427296 55.9685187,536.989254 56.5082092,536.989254 Z M56.5082092,541.291247 C57.0478998,541.291247 57.4859418,541.729289 57.4859418,542.268979 C57.4859418,542.809669 57.0478998,543.246712 56.5082092,543.246712 C55.9685187,543.246712 55.5304767,542.809669 55.5304767,542.268979 C55.5304767,541.729289 55.9685187,541.291247 56.5082092,541.291247 Z" id="jacket-white"></path>
        </g>
    </g>
</svg>