<?xml version="1.0" encoding="UTF-8"?>
<svg width="38px" height="40px" viewBox="0 0 38 40" version="1.1" xmlns="http://www.w3.org/2000/svg" xmlns:xlink="http://www.w3.org/1999/xlink">
    <!-- Generator: Sketch 51.3 (57544) - http://www.bohemiancoding.com/sketch -->
    <title>jacket</title>
    <desc>Created with Sketch.</desc>
    <defs></defs>
    <g id="Page-1" stroke="none" stroke-width="1" fill="none" fill-rule="evenodd">
        <g id="Clothing-Icons" transform="translate(-37.000000, -224.000000)" fill="#435761" fill-rule="nonzero">
            <path d="M70.6717984,228.307883 L62.1067968,224.157364 C62.1037981,224.155903 62.1006456,224.154904 62.09757,224.15352 C62.0899579,224.149906 62.082192,224.146677 62.0745799,224.14337 C62.0611242,224.137373 62.047284,224.132144 62.0335976,224.126839 C62.0308295,224.125762 62.0282153,224.124609 62.0254472,224.12361 C62.0177582,224.120688 62.0102999,224.117074 62.0024571,224.114306 C61.9967673,224.112384 61.9909237,224.111076 61.9852338,224.109231 C61.9719318,224.104848 61.9584761,224.101081 61.9449435,224.097313 C61.9318722,224.093699 61.9189547,224.08947 61.9057296,224.086395 C61.8991939,224.084857 61.8925045,224.083627 61.8859689,224.082166 C61.875435,224.079936 61.8647473,224.078321 61.8540596,224.076399 C61.8377589,224.073477 61.8213813,224.070402 61.8050038,224.068403 C61.7970841,224.067403 61.7891644,224.066173 61.7812448,224.065404 C61.7765545,224.064943 61.7717873,224.065019 61.767097,224.064635 C61.7648672,224.064404 61.7626374,224.064404 61.7603307,224.064251 C61.7413389,224.062713 61.7222702,224.061482 61.7032015,224.061021 C61.6952818,224.060637 61.687439,224.059483 61.6794425,224.059483 L49.3805114,224.059483 C49.3738988,224.059483 49.3672863,224.060483 49.3607506,224.06056 C49.3417588,224.060944 49.3230746,224.062328 49.3042365,224.063789 C49.2858598,224.06525 49.2676369,224.066788 49.249414,224.069248 C49.2301915,224.071863 49.2112766,224.075323 49.1922848,224.079013 C49.1746001,224.08255 49.1569923,224.086241 49.1394614,224.090624 C49.120854,224.095391 49.1024773,224.100773 49.0843313,224.106694 C49.0669542,224.11223 49.0497308,224.11815 49.0325844,224.124686 C49.0148228,224.131452 48.9973688,224.138757 48.9799916,224.1466 C48.9714569,224.150444 48.9626145,224.153212 48.9541566,224.157364 L40.389155,228.307883 C38.34419,229.298995 37.0229132,231.40701 37.0229132,233.678492 L37.0229132,262.449479 C37.0229132,262.989401 37.4606477,263.427212 38.0006457,263.427212 L44.9034405,263.427212 L66.157436,263.427212 L73.0602308,263.427212 C73.6002289,263.427212 74.0379633,262.989401 74.0379633,262.449479 L74.0379633,233.678415 C74.0380402,231.40701 72.7167634,229.298995 70.6717984,228.307883 Z M61.8227653,226.707112 L65.3663153,230.842945 L57.775048,236.771467 L56.7780161,235.156855 L61.8227653,226.707112 Z M59.9586455,226.014948 L55.6202073,233.281586 L51.1333714,226.014948 L59.9586455,226.014948 Z M49.2520283,226.690119 L54.7919488,235.66233 C54.7934097,235.664867 54.7951013,235.667405 54.7966391,235.669942 L56.4472355,238.343175 L51.481606,234.849988 L45.7287772,230.802962 L49.2520283,226.690119 Z M43.925708,261.471593 L38.9783783,261.471593 L38.9783783,259.778169 L43.925708,259.778169 L43.925708,261.471593 Z M58.8059115,261.47167 L45.8811731,261.47167 L45.8811731,239.786476 C45.8811731,239.246555 45.4434386,238.808743 44.9034405,238.808743 C44.3634425,238.808743 43.925708,239.246555 43.925708,239.786476 L43.925708,257.822781 L38.9783783,257.822781 L38.9783783,243.450051 L40.4078392,243.450051 C40.9478373,243.450051 41.3855718,243.01224 41.3855718,242.472318 C41.3855718,241.932397 40.9478373,241.494586 40.4078392,241.494586 L38.9783783,241.494586 L38.9783783,240.321322 L40.4078392,240.321322 C40.9478373,240.321322 41.3855718,239.883511 41.3855718,239.34359 C41.3855718,238.803668 40.9478373,238.365857 40.4078392,238.365857 L38.9783783,238.365857 L38.9783783,237.192593 L40.4078392,237.192593 C40.9478373,237.192593 41.3855718,236.754782 41.3855718,236.214861 C41.3855718,235.67494 40.9478373,235.237128 40.4078392,235.237128 L38.9783783,235.237128 L38.9783783,233.678415 C38.9783783,232.151381 39.8668416,230.734069 41.2419414,230.06751 L45.5880686,227.96134 L43.5440263,230.34762 C43.3647959,230.556837 43.2822161,230.83195 43.3164321,231.10537 C43.3506481,231.378791 43.4986612,231.624839 43.7240257,231.783463 L50.3566292,236.449298 L58.8059115,242.393122 L58.8059115,261.47167 Z M66.1575129,241.722565 C65.6175148,241.722565 65.1797803,242.160376 65.1797803,242.700297 L65.1797803,261.471593 L60.7613765,261.471593 L60.7613765,241.885571 C60.7613765,241.880189 60.7603001,241.874807 60.7603001,241.869424 C60.759685,241.83567 60.7573783,241.802146 60.75338,241.768852 C60.7520729,241.758703 60.7511502,241.748553 60.7495355,241.738404 C60.7435381,241.699036 60.7356184,241.659976 60.7249307,241.621531 C60.7236236,241.616918 60.721932,241.612535 60.720548,241.608075 C60.7102447,241.573475 60.6978655,241.539567 60.6838715,241.506119 C60.680027,241.497123 60.6762594,241.488127 60.6721073,241.479208 C60.6554222,241.442531 60.6370455,241.40647 60.6156701,241.37187 C60.6142092,241.369409 60.6127483,241.367102 60.6112874,241.364642 L58.8088333,238.445515 L67.3764492,231.754475 C67.5868969,231.590085 67.7209161,231.346959 67.74752,231.081227 C67.774124,230.815495 67.6908522,230.550532 67.5171578,230.347851 L65.4724235,227.961264 L69.8192427,230.067664 C71.1941118,230.734069 72.0825751,232.151381 72.0825751,233.678415 L72.0825751,235.236898 L70.6531142,235.236898 C70.1131161,235.236898 69.6753816,235.674709 69.6753816,236.21463 C69.6753816,236.754551 70.1131161,237.192363 70.6531142,237.192363 L72.0825751,237.192363 L72.0825751,238.365626 L70.6531142,238.365626 C70.1131161,238.365626 69.6753816,238.803438 69.6753816,239.343359 C69.6753816,239.88328 70.1131161,240.321092 70.6531142,240.321092 L72.0825751,240.321092 L72.0825751,241.494355 L70.6531142,241.494355 C70.1131161,241.494355 69.6753816,241.932167 69.6753816,242.472088 C69.6753816,243.012009 70.1131161,243.44982 70.6531142,243.44982 L72.0825751,243.44982 L72.0825751,257.822627 L67.1352454,257.822627 L67.1352454,242.700297 C67.1352454,242.160376 66.697511,241.722565 66.1575129,241.722565 Z M72.0825751,261.47167 L67.1352454,261.47167 L67.1352454,259.778246 L72.0825751,259.778246 L72.0825751,261.47167 Z M56.5082092,244.390492 C57.0478998,244.390492 57.4859418,244.828534 57.4859418,245.368224 C57.4859418,245.908915 57.0478998,246.345957 56.5082092,246.345957 C55.9685187,246.345957 55.5304767,245.908915 55.5304767,245.368224 C55.5304767,244.828534 55.9685187,244.390492 56.5082092,244.390492 Z M66.1575129,238.808666 C66.6972034,238.808666 67.1352454,239.246631 67.1352454,239.786399 C67.1352454,240.327089 66.6972034,240.764131 66.1575129,240.764131 C65.6178224,240.764131 65.1797803,240.327089 65.1797803,239.786399 C65.1797803,239.246708 65.6178224,238.808666 66.1575129,238.808666 Z M56.5082092,248.692561 C57.0478998,248.692561 57.4859418,249.130603 57.4859418,249.670294 C57.4859418,250.210984 57.0478998,250.648026 56.5082092,250.648026 C55.9685187,250.648026 55.5304767,250.210984 55.5304767,249.670294 C55.5304767,249.130603 55.9685187,248.692561 56.5082092,248.692561 Z M56.5082092,252.99463 C57.0478998,252.99463 57.4859418,253.432596 57.4859418,253.972363 C57.4859418,254.513053 57.0478998,254.950096 56.5082092,254.950096 C55.9685187,254.950096 55.5304767,254.513053 55.5304767,253.972363 C55.5304767,253.432673 55.9685187,252.99463 56.5082092,252.99463 Z M56.5082092,257.296623 C57.0478998,257.296623 57.4859418,257.734665 57.4859418,258.274355 C57.4859418,258.815046 57.0478998,259.252088 56.5082092,259.252088 C55.9685187,259.252088 55.5304767,258.815046 55.5304767,258.274355 C55.5304767,257.734665 55.9685187,257.296623 56.5082092,257.296623 Z" id="jacket"></path>
        </g>
    </g>
</svg>