<?xml version="1.0" encoding="UTF-8"?>
<svg width="42px" height="41px" viewBox="0 0 42 41" version="1.1" xmlns="http://www.w3.org/2000/svg" xmlns:xlink="http://www.w3.org/1999/xlink">
    <!-- Generator: Sketch 51.3 (57544) - http://www.bohemiancoding.com/sketch -->
    <title>longsleeve</title>
    <desc>Created with Sketch.</desc>
    <defs></defs>
    <g id="Page-1" stroke="none" stroke-width="1" fill="none" fill-rule="evenodd">
        <g id="Clothing-Icons" transform="translate(-135.000000, -102.000000)" fill="#435761" fill-rule="nonzero">
            <path d="M164.824991,102.863215 L146.860617,102.863215 C140.504524,102.863215 135.333333,108.034326 135.333333,114.390499 L135.333333,141.071558 C135.333333,141.669938 135.81843,142.155035 136.41681,142.155035 L144.066282,142.155035 L167.619327,142.155035 L175.268799,142.155035 C175.867178,142.155035 176.352275,141.669938 176.352275,141.071558 L176.352275,114.390499 C176.352275,108.034326 171.181165,102.863215 164.824991,102.863215 Z M161.35841,105.030169 C160.853685,107.546825 158.627125,109.448678 155.964099,109.448678 C153.301072,109.448678 151.074513,107.546825 150.569787,105.030169 L161.35841,105.030169 Z M142.982805,139.988082 L137.500287,139.988082 L137.500287,137.533915 L142.982805,137.533915 L142.982805,139.988082 Z M166.53585,139.988082 L145.149759,139.988082 L145.149759,137.533915 L166.53585,137.533915 L166.53585,139.988082 Z M174.185322,139.988082 L168.702804,139.988082 L168.702804,137.533915 L174.185322,137.533915 L174.185322,139.988082 Z M174.185322,135.366961 L168.702804,135.366961 L168.702804,118.340896 C168.702804,117.742516 168.217707,117.257419 167.619327,117.257419 C167.020947,117.257419 166.53585,117.742516 166.53585,118.340896 L166.53585,135.366961 L145.149759,135.366961 L145.149759,114.873754 C145.149759,114.275374 144.664662,113.790277 144.066282,113.790277 C143.467902,113.790277 142.982805,114.275374 142.982805,114.873754 L142.982805,135.366961 L137.500287,135.366961 L137.500287,114.390499 C137.500287,109.229243 141.699281,105.030169 146.860617,105.030169 L148.373031,105.030169 C148.850837,108.393241 151.517549,111.059793 154.880622,111.5376 L154.880622,118.224889 C154.880622,118.823269 155.365719,119.308366 155.964099,119.308366 C156.562479,119.308366 157.047576,118.823269 157.047576,118.224889 L157.047576,111.5376 C160.410648,111.059793 163.0772,108.393161 163.555087,105.030169 L164.824911,105.030169 C169.986248,105.030169 174.185242,109.229163 174.185242,114.390499 L174.185322,135.366961 Z M152.267267,112.861662 C151.669207,112.861662 151.18379,113.34708 151.18379,113.945139 C151.18379,114.54432 151.669207,115.028616 152.267267,115.028616 C152.865326,115.028616 153.350743,114.54432 153.350743,113.945139 C153.350743,113.34708 152.865326,112.861662 152.267267,112.861662 Z M152.267267,116.257342 C151.669207,116.257342 151.18379,116.741638 151.18379,117.340819 C151.18379,117.938878 151.669207,118.424295 152.267267,118.424295 C152.865326,118.424295 153.350743,117.938878 153.350743,117.340819 C153.350743,116.741718 152.865326,116.257342 152.267267,116.257342 Z M167.619327,113.790277 C167.021267,113.790277 166.53585,114.274573 166.53585,114.873754 C166.53585,115.471813 167.021267,115.95723 167.619327,115.95723 C168.218508,115.95723 168.702804,115.471813 168.702804,114.873754 C168.702804,114.274573 168.218508,113.790277 167.619327,113.790277 Z" id="longsleeve"></path>
        </g>
    </g>
</svg>