<?xml version="1.0" encoding="UTF-8"?>
<svg width="42px" height="41px" viewBox="0 0 42 41" version="1.1" xmlns="http://www.w3.org/2000/svg" xmlns:xlink="http://www.w3.org/1999/xlink">
    <!-- Generator: Sketch 51.3 (57544) - http://www.bohemiancoding.com/sketch -->
    <title>longsleeve-white</title>
    <desc>Created with Sketch.</desc>
    <defs></defs>
    <g id="Page-1" stroke="none" stroke-width="1" fill="none" fill-rule="evenodd">
        <g id="Clothing-Icons" transform="translate(-135.000000, -386.000000)" fill="#FFFFFF" fill-rule="nonzero">
            <path d="M164.824991,386.857839 L146.860617,386.857839 C140.504524,386.857839 135.333333,392.028949 135.333333,398.385123 L135.333333,425.066182 C135.333333,425.664562 135.81843,426.149659 136.41681,426.149659 L144.066282,426.149659 L167.619327,426.149659 L175.268799,426.149659 C175.867178,426.149659 176.352275,425.664562 176.352275,425.066182 L176.352275,398.385123 C176.352275,392.028949 171.181165,386.857839 164.824991,386.857839 Z M161.35841,389.024793 C160.853685,391.541449 158.627125,393.443302 155.964099,393.443302 C153.301072,393.443302 151.074513,391.541449 150.569787,389.024793 L161.35841,389.024793 Z M142.982805,423.982705 L137.500287,423.982705 L137.500287,421.528539 L142.982805,421.528539 L142.982805,423.982705 Z M166.53585,423.982705 L145.149759,423.982705 L145.149759,421.528539 L166.53585,421.528539 L166.53585,423.982705 Z M174.185322,423.982705 L168.702804,423.982705 L168.702804,421.528539 L174.185322,421.528539 L174.185322,423.982705 Z M174.185322,419.361585 L168.702804,419.361585 L168.702804,402.33552 C168.702804,401.73714 168.217707,401.252043 167.619327,401.252043 C167.020947,401.252043 166.53585,401.73714 166.53585,402.33552 L166.53585,419.361585 L145.149759,419.361585 L145.149759,398.868377 C145.149759,398.269998 144.664662,397.7849 144.066282,397.7849 C143.467902,397.7849 142.982805,398.269998 142.982805,398.868377 L142.982805,419.361585 L137.500287,419.361585 L137.500287,398.385123 C137.500287,393.223867 141.699281,389.024793 146.860617,389.024793 L148.373031,389.024793 C148.850837,392.387865 151.517549,395.054417 154.880622,395.532224 L154.880622,402.219513 C154.880622,402.817893 155.365719,403.30299 155.964099,403.30299 C156.562479,403.30299 157.047576,402.817893 157.047576,402.219513 L157.047576,395.532224 C160.410648,395.054417 163.0772,392.387785 163.555087,389.024793 L164.824911,389.024793 C169.986248,389.024793 174.185242,393.223786 174.185242,398.385123 L174.185322,419.361585 Z M152.267267,396.856286 C151.669207,396.856286 151.18379,397.341704 151.18379,397.939763 C151.18379,398.538944 151.669207,399.02324 152.267267,399.02324 C152.865326,399.02324 153.350743,398.538944 153.350743,397.939763 C153.350743,397.341704 152.865326,396.856286 152.267267,396.856286 Z M152.267267,400.251966 C151.669207,400.251966 151.18379,400.736261 151.18379,401.335442 C151.18379,401.933502 151.669207,402.418919 152.267267,402.418919 C152.865326,402.418919 153.350743,401.933502 153.350743,401.335442 C153.350743,400.736342 152.865326,400.251966 152.267267,400.251966 Z M167.619327,397.7849 C167.021267,397.7849 166.53585,398.269196 166.53585,398.868377 C166.53585,399.466437 167.021267,399.951854 167.619327,399.951854 C168.218508,399.951854 168.702804,399.466437 168.702804,398.868377 C168.702804,398.269196 168.218508,397.7849 167.619327,397.7849 Z" id="longsleeve-white"></path>
        </g>
    </g>
</svg>