<?xml version="1.0" encoding="UTF-8"?>
<svg width="29px" height="47px" viewBox="0 0 29 47" version="1.1" xmlns="http://www.w3.org/2000/svg" xmlns:xlink="http://www.w3.org/1999/xlink">
    <!-- Generator: Sketch 51.3 (57544) - http://www.bohemiancoding.com/sketch -->
    <title>pants</title>
    <desc>Created with Sketch.</desc>
    <defs></defs>
    <g id="Page-1" stroke="none" stroke-width="1" fill="none" fill-rule="evenodd">
        <g id="Clothing-Icons" transform="translate(-242.000000, -99.000000)" fill="#435761" fill-rule="nonzero">
            <path d="M269.652732,99.8008053 L243.316547,99.8008053 C242.705501,99.8008053 242.209976,100.296241 242.209976,100.907377 L242.209976,144.227025 C242.209976,144.83816 242.705501,145.333596 243.316547,145.333596 L251.65225,145.333596 C252.227902,145.333596 252.70733,144.892319 252.755086,144.318624 L254.884011,118.667655 L258.085268,118.667655 L259.808933,139.435499 C259.809022,139.490014 259.814358,139.543284 259.822184,139.595575 L260.214104,144.318713 C260.261771,144.892319 260.741288,145.333685 261.31694,145.333685 L269.652643,145.333685 C270.263689,145.333685 270.759214,144.838249 270.759214,144.227114 L270.759214,100.907377 C270.759303,100.296241 270.263867,99.8008053 269.652732,99.8008053 Z M257.591255,102.013948 L268.546249,102.013948 L268.546249,103.950426 L257.591255,103.950426 L257.591255,102.013948 Z M257.591255,106.163568 L259.085122,106.163568 L259.085122,109.612677 C259.085122,110.650949 258.473186,111.54871 257.591255,111.965264 L257.591255,106.163568 Z M244.423119,106.163568 L247.410852,106.163568 L247.410852,106.728993 C247.410852,108.603219 246.144739,110.186017 244.423119,110.670158 L244.423119,106.163568 Z M255.378113,116.454601 L253.865481,116.454601 C253.289829,116.454601 252.810401,116.895967 252.762645,117.469663 L250.633809,143.120454 L244.423119,143.120454 L244.423119,140.538869 L245.824764,140.538869 C246.43581,140.538869 246.931335,140.043433 246.931335,139.432297 C246.931335,138.821162 246.43581,138.325726 245.824764,138.325726 L244.423119,138.325726 L244.423119,112.937282 C247.374835,112.41241 249.623995,109.829314 249.623995,106.728993 L249.623995,106.163568 L255.378113,106.163568 L255.378113,116.454601 Z M255.378113,103.950426 L244.423119,103.950426 L244.423119,102.013948 L255.378113,102.013948 L255.378113,103.950426 Z M268.54616,143.120454 L262.33547,143.120454 L262.121234,140.538869 L268.54616,140.538869 L268.54616,143.120454 Z M268.546249,138.325726 L261.937591,138.325726 L260.206723,117.469485 C260.159056,116.895878 259.679538,116.454424 259.103887,116.454424 L257.591255,116.454424 L257.591255,114.296418 C259.713599,113.795024 261.298265,111.886026 261.298265,109.612677 L261.298265,106.163568 L263.076534,106.163568 L263.076534,106.728993 C263.076534,109.92278 265.463181,112.567862 268.546249,112.97908 L268.546249,138.325726 Z M268.546249,110.736857 C266.689098,110.349206 265.289676,108.699531 265.289676,106.728993 L265.289676,106.163568 L268.546249,106.163568 L268.546249,110.736857 Z M248.923484,140.538869 C248.312341,140.538869 247.816912,140.04344 247.816912,139.432297 C247.816912,138.821155 248.312341,138.325726 248.923484,138.325726 C249.534626,138.325726 250.030055,138.821155 250.030055,139.432297 C250.030055,140.04344 249.534626,140.538869 248.923484,140.538869 Z" id="pants"></path>
        </g>
    </g>
</svg>