<?xml version="1.0" encoding="UTF-8"?>
<svg width="29px" height="47px" viewBox="0 0 29 47" version="1.1" xmlns="http://www.w3.org/2000/svg" xmlns:xlink="http://www.w3.org/1999/xlink">
    <!-- Generator: Sketch 51.3 (57544) - http://www.bohemiancoding.com/sketch -->
    <title>pants-white</title>
    <desc>Created with Sketch.</desc>
    <defs></defs>
    <g id="Page-1" stroke="none" stroke-width="1" fill="none" fill-rule="evenodd">
        <g id="Clothing-Icons" transform="translate(-242.000000, -383.000000)" fill="#FFFFFF" fill-rule="nonzero">
            <path d="M269.652732,383.795429 L243.316547,383.795429 C242.705501,383.795429 242.209976,384.290865 242.209976,384.902001 L242.209976,428.221649 C242.209976,428.832784 242.705501,429.32822 243.316547,429.32822 L251.65225,429.32822 C252.227902,429.32822 252.70733,428.886943 252.755086,428.313248 L254.884011,402.662279 L258.085268,402.662279 L259.808933,423.430123 C259.809022,423.484638 259.814358,423.537907 259.822184,423.590199 L260.214104,428.313337 C260.261771,428.886943 260.741288,429.328309 261.31694,429.328309 L269.652643,429.328309 C270.263689,429.328309 270.759214,428.832873 270.759214,428.221738 L270.759214,384.902001 C270.759303,384.290865 270.263867,383.795429 269.652732,383.795429 Z M257.591255,386.008572 L268.546249,386.008572 L268.546249,387.945049 L257.591255,387.945049 L257.591255,386.008572 Z M257.591255,390.158192 L259.085122,390.158192 L259.085122,393.607301 C259.085122,394.645573 258.473186,395.543334 257.591255,395.959888 L257.591255,390.158192 Z M244.423119,390.158192 L247.410852,390.158192 L247.410852,390.723617 C247.410852,392.597843 246.144739,394.180641 244.423119,394.664782 L244.423119,390.158192 Z M255.378113,400.449225 L253.865481,400.449225 C253.289829,400.449225 252.810401,400.890591 252.762645,401.464286 L250.633809,427.115077 L244.423119,427.115077 L244.423119,424.533493 L245.824764,424.533493 C246.43581,424.533493 246.931335,424.038057 246.931335,423.426921 C246.931335,422.815786 246.43581,422.32035 245.824764,422.32035 L244.423119,422.32035 L244.423119,396.931906 C247.374835,396.407034 249.623995,393.823937 249.623995,390.723617 L249.623995,390.158192 L255.378113,390.158192 L255.378113,400.449225 Z M255.378113,387.945049 L244.423119,387.945049 L244.423119,386.008572 L255.378113,386.008572 L255.378113,387.945049 Z M268.54616,427.115077 L262.33547,427.115077 L262.121234,424.533493 L268.54616,424.533493 L268.54616,427.115077 Z M268.546249,422.32035 L261.937591,422.32035 L260.206723,401.464109 C260.159056,400.890502 259.679538,400.449047 259.103887,400.449047 L257.591255,400.449047 L257.591255,398.291042 C259.713599,397.789648 261.298265,395.88065 261.298265,393.607301 L261.298265,390.158192 L263.076534,390.158192 L263.076534,390.723617 C263.076534,393.917404 265.463181,396.562486 268.546249,396.973704 L268.546249,422.32035 Z M268.546249,394.731481 C266.689098,394.343829 265.289676,392.694155 265.289676,390.723617 L265.289676,390.158192 L268.546249,390.158192 L268.546249,394.731481 Z M248.923484,424.533493 C248.312341,424.533493 247.816912,424.038064 247.816912,423.426921 C247.816912,422.815779 248.312341,422.32035 248.923484,422.32035 C249.534626,422.32035 250.030055,422.815779 250.030055,423.426921 C250.030055,424.038064 249.534626,424.533493 248.923484,424.533493 Z" id="pants-white"></path>
        </g>
    </g>
</svg>