<?xml version="1.0" encoding="UTF-8"?>
<svg width="76px" height="112px" viewBox="0 0 76 112" version="1.1" xmlns="http://www.w3.org/2000/svg" xmlns:xlink="http://www.w3.org/1999/xlink">
    <!-- Generator: Sketch 51.3 (57544) - http://www.bohemiancoding.com/sketch -->
    <title>plasticjug</title>
    <desc>Created with Sketch.</desc>
    <defs></defs>
    <g id="Page-1" stroke="none" stroke-width="1" fill="none" fill-rule="evenodd">
        <g id="Clothing-Icons" transform="translate(-279.000000, -828.000000)">
            <g id="plasticjug" transform="translate(278.500000, 827.552816)">
                <path d="M50.2649661,10.7712953 L50.2649661,3.09344316 L18.5854869,3.09344316 L18.5854869,10.7589928 L28.7808704,10.7589928 L5.96236415,21.2090632 C4.23769488,21.9989009 3.1317961,23.7217173 3.1317961,25.6186431 L3.1317961,105.12525 C3.1317961,107.803831 5.30321506,109.97525 7.9817961,109.97525 L69.4405288,109.97525 C69.5688116,109.97525 69.6970438,109.97016 69.824923,109.959993 C72.4950779,109.747698 74.487567,107.411011 74.275272,104.740856 L67.9759353,25.510518 C67.8331587,23.7147354 66.7068149,22.1460383 65.0508929,21.4367126 L41.8242877,11.4874346 L50.2649661,10.7712953 Z M14.9009834,25.2425376 L19.0012892,25.2425376 C20.7409862,25.2425376 22.1512892,26.6528406 22.1512892,28.3925376 L22.1512892,64.4656979 C22.1512892,66.2053948 20.7409862,67.6156979 19.0012892,67.6156979 L14.9009834,67.6156979 C13.1612864,67.6156979 11.7509834,66.2053948 11.7509834,64.4656979 L11.7509834,28.3925376 C11.7509834,26.6528406 13.1612864,25.2425376 14.9009834,25.2425376 Z" id="Combined-Shape" stroke="#435761" stroke-width="4.3"></path>
                <g id="Group-3" transform="translate(21.863252, 94.184918) rotate(-270.000000) translate(-21.863252, -94.184918) translate(7.863252, 91.184918)">
                    <path d="M9.38145637,3.080494 L27.3814564,3.080494" id="Line-3-Copy-2" stroke="#435761" stroke-width="4.3" stroke-linecap="round" stroke-linejoin="round"></path>
                    <circle id="Path-Copy-2" fill="#435761" cx="2.98150917" cy="2.830494" r="2.25"></circle>
                </g>
            </g>
        </g>
    </g>
</svg>