<?xml version="1.0" encoding="UTF-8"?>
<svg width="40px" height="109px" viewBox="0 0 40 109" version="1.1" xmlns="http://www.w3.org/2000/svg" xmlns:xlink="http://www.w3.org/1999/xlink">
    <!-- Generator: Sketch 51.3 (57544) - http://www.bohemiancoding.com/sketch -->
    <title>plasticbottle</title>
    <desc>Created with Sketch.</desc>
    <defs></defs>
    <g id="Page-1" stroke="none" stroke-width="1" fill="none" fill-rule="evenodd">
        <g id="Clothing-Icons" transform="translate(-172.000000, -830.000000)">
            <g id="plasticbottle" transform="translate(172.000000, 829.552816)">
                <path d="M29.7639434,10.5581092 L29.7639434,2.89255954 L9.6587411,2.89255954 L9.6587411,10.5581092 L11.7927245,10.5581092 L11.7927245,18.719495 L4.24720616,29.1375783 C3.02998843,30.8181886 2.37463076,32.8402905 2.37463076,34.9153977 L2.37463076,101.552816 C2.37463076,104.231397 4.54604973,106.402816 7.22463076,106.402816 L32.1980537,106.402816 C34.8766348,106.402816 37.0480537,104.231397 37.0480537,101.552816 L37.0480537,34.9153977 C37.0480537,32.8402905 36.392696,30.8181886 35.1754783,29.1375783 L27.6775009,18.7851346 L27.6775009,10.5581092 L29.7639434,10.5581092 Z" id="Combined-Shape" stroke="#435761" stroke-width="4.3"></path>
                <path d="M18.7297569,36.2781874 L36.7297569,36.2781874" id="Line-3" stroke="#435761" stroke-width="4.3" stroke-linecap="round" stroke-linejoin="round"></path>
                <circle id="Path" fill="#435761" cx="12.3298097" cy="36.0281874" r="2.25"></circle>
            </g>
        </g>
    </g>
</svg>