<?xml version="1.0" encoding="UTF-8"?>
<svg width="73px" height="98px" viewBox="0 0 73 98" version="1.1" xmlns="http://www.w3.org/2000/svg" xmlns:xlink="http://www.w3.org/1999/xlink">
    <!-- Generator: Sketch 51.3 (57544) - http://www.bohemiancoding.com/sketch -->
    <title>plasticbag</title>
    <desc>Created with Sketch.</desc>
    <defs></defs>
    <g id="Page-1" stroke="none" stroke-width="1" fill="none" fill-rule="evenodd">
        <g id="Clothing-Icons" transform="translate(-40.000000, -835.000000)" fill="#435761" fill-rule="nonzero">
            <g id="plasticbag" transform="translate(40.000000, 835.052816)">
                <path d="M65.9918494,0 L57.4767721,0 C53.9557876,0 51.0904641,2.86532353 51.0904641,6.38630801 L51.0904641,31.9315401 C51.0904641,33.1066207 50.1367754,34.0603094 48.9616947,34.0603094 L23.4164627,34.0603094 C22.241382,34.0603094 21.2876934,33.104492 21.2876934,31.9315401 L21.2876934,6.38630801 C21.2876934,2.86532353 18.4223698,0 14.9013854,0 L6.38630801,0 C2.86532353,0 0,2.86532353 0,6.38630801 L0,91.5370815 C0,95.058066 2.86532353,97.9233895 6.38630801,97.9233895 L65.9918494,97.9233895 C69.5128339,97.9233895 72.3781574,95.058066 72.3781574,91.5370815 L72.3781574,6.38630801 C72.3781574,2.86532353 69.5128339,0 65.9918494,0 Z M68.1206188,91.5370815 C68.1206188,92.7100334 67.1669301,93.6658508 65.9918494,93.6658508 L6.38630801,93.6658508 C5.21122734,93.6658508 4.25753867,92.7100334 4.25753867,91.5370815 L4.25753867,85.1507735 L44.7041561,85.1507735 C45.8813655,85.1507735 46.8329254,84.1970848 46.8329254,83.0220041 C46.8329254,81.8469235 45.8813655,80.8932348 44.7041561,80.8932348 L4.25753867,80.8932348 L4.25753867,6.38630801 C4.25753867,5.21335611 5.21122734,4.25753867 6.38630801,4.25753867 L14.9013854,4.25753867 C16.076466,4.25753867 17.0301547,5.21335611 17.0301547,6.38630801 L17.0301547,31.9315401 C17.0301547,35.4525245 19.8954782,38.3178481 23.4164627,38.3178481 L48.9616947,38.3178481 C52.4826792,38.3178481 55.3480028,35.4525245 55.3480028,31.9315401 L55.3480028,6.38630801 C55.3480028,5.21335611 56.3016914,4.25753867 57.4767721,4.25753867 L65.9918494,4.25753867 C67.1669301,4.25753867 68.1206188,5.21335611 68.1206188,6.38630801 L68.1206188,91.5370815 Z M51.5013058,85.2248423 C52.7439465,85.2248423 53.7513058,84.2174829 53.7513058,82.9748423 C53.7513058,81.7322016 52.7439465,80.7248423 51.5013058,80.7248423 C50.2586651,80.7248423 49.2513058,81.7322016 49.2513058,82.9748423 C49.2513058,84.2174829 50.2586651,85.2248423 51.5013058,85.2248423 Z" id="Shape"></path>
            </g>
        </g>
    </g>
</svg>