<?xml version="1.0" encoding="UTF-8"?>
<svg width="44px" height="40px" viewBox="0 0 44 40" version="1.1" xmlns="http://www.w3.org/2000/svg" xmlns:xlink="http://www.w3.org/1999/xlink">
    <!-- Generator: Sketch 51.3 (57544) - http://www.bohemiancoding.com/sketch -->
    <title>shorts</title>
    <desc>Created with Sketch.</desc>
    <defs></defs>
    <g id="Page-1" stroke="none" stroke-width="1" fill="none" fill-rule="evenodd">
        <g id="Clothing-Icons" transform="translate(-134.000000, -646.000000)" fill="#435761" fill-rule="nonzero">
            <path d="M176.331709,646.735623 L135.35373,646.735623 C134.691931,646.735623 134.155512,647.272788 134.155512,647.935507 L134.155512,683.885542 C134.155512,684.54826 134.691931,685.085426 135.35373,685.085426 L151.767727,685.085426 C152.429526,685.085426 152.965945,684.54826 152.965945,683.885542 L152.965945,671.554662 L158.719663,671.554662 L158.719663,683.885542 C158.719663,684.54826 159.256083,685.085426 159.917882,685.085426 L176.331879,685.085426 C176.993678,685.085426 177.530097,684.54826 177.530097,683.885542 L177.530097,647.935507 C177.529928,647.272788 176.993508,646.735623 176.331709,646.735623 Z M157.040938,654.281557 L160.412621,654.281557 L160.412621,660.180026 C160.412621,662.288136 158.981265,664.066924 157.040938,664.595521 L157.040938,654.281557 Z M136.551864,654.281557 L142.24806,654.281557 L142.24806,655.687756 C142.24806,659.08525 139.78402,661.915378 136.551864,662.485205 L136.551864,654.281557 Z M154.644501,669.154894 L151.767642,669.154894 C151.105844,669.154894 150.569424,669.692059 150.569424,670.354778 L150.569424,682.685657 L136.551864,682.685657 L136.551864,664.911356 C141.110498,664.320576 144.644411,660.410942 144.644411,655.687586 L144.644411,654.281557 L147.455361,654.281557 C148.11716,654.281557 148.65358,653.744391 148.65358,653.081673 C148.65358,652.418954 148.11716,651.881789 147.455361,651.881789 L136.551864,651.881789 L136.551864,649.135391 L154.644501,649.135391 L154.644501,669.154894 Z M175.133576,682.685657 L161.11593,682.685657 L161.11593,670.354778 C161.11593,669.692059 160.579511,669.154894 159.917712,669.154894 L157.040853,669.154894 L157.040853,667.050431 C160.312826,666.479757 162.808973,663.617137 162.808973,660.179941 L162.808973,654.281472 L167.040943,654.281472 L167.040943,655.687671 C167.040943,660.410857 170.574857,664.320661 175.133491,664.911441 L175.133576,682.685657 Z M175.133576,662.485205 C171.901504,661.915378 169.43738,659.085165 169.43738,655.687756 L169.43738,654.281557 L175.133576,654.281557 L175.133576,662.485205 Z M175.133576,651.881873 L157.040938,651.881873 L157.040938,649.135391 L175.133576,649.135391 L175.133576,651.881873 Z M151.249691,651.881873 C151.911066,651.881873 152.447909,652.419378 152.447909,653.081757 C152.447909,653.744137 151.911066,654.281642 151.249691,654.281642 C150.588231,654.281642 150.051473,653.744052 150.051473,653.081757 C150.051473,652.419378 150.588316,651.881873 151.249691,651.881873 Z" id="shorts"></path>
        </g>
    </g>
</svg>