<?xml version="1.0" encoding="UTF-8"?>
<svg width="56px" height="41px" viewBox="0 0 56 41" version="1.1" xmlns="http://www.w3.org/2000/svg" xmlns:xlink="http://www.w3.org/1999/xlink">
    <!-- Generator: Sketch 51.3 (57544) - http://www.bohemiancoding.com/sketch -->
    <title>shortsleeve-white</title>
    <desc>Created with Sketch.</desc>
    <defs></defs>
    <g id="Page-1" stroke="none" stroke-width="1" fill="none" fill-rule="evenodd">
        <g id="Clothing-Icons" transform="translate(-28.000000, -386.000000)" fill="#FFFFFF" fill-rule="nonzero">
            <path d="M82.7519161,396.763705 C83.2671471,397.19365 83.3371878,397.959514 82.9085215,398.475491 L76.3153131,406.408321 C76.108709,406.656822 75.8120221,406.812894 75.4902825,406.842211 C75.4532899,406.845623 75.416404,406.847328 75.379518,406.847328 C75.0959437,406.847328 74.8198319,406.748077 74.6002218,406.564927 L71.5931618,404.056787 L71.5931618,425.01122 C71.5931618,425.68327 71.0484007,426.227924 70.3764576,426.227924 L41.4195799,426.227924 C40.7475302,426.227924 40.2028757,425.683163 40.2028757,425.01122 L40.2028757,404.056787 L37.1958157,406.564927 C36.9762056,406.748184 36.7000938,406.847328 36.4165195,406.847328 C36.3796335,406.847328 36.3427476,406.845623 36.305755,406.842211 C35.9840155,406.812894 35.6872219,406.656715 35.4807244,406.408321 L28.887516,398.475491 C28.4585299,397.959514 28.5286772,397.193437 29.0439082,396.763598 L40.6399639,387.089771 C40.6407101,387.089131 40.641563,387.088705 40.6423092,387.088065 C40.7040346,387.036787 40.7707705,386.991479 40.8419839,386.952994 C40.856589,386.945105 40.8716206,386.938709 40.886439,386.931566 C40.9072273,386.921332 40.9278024,386.910565 40.949337,386.90161 C40.968313,386.893721 40.9877155,386.887538 41.0069047,386.880608 C41.0250279,386.873998 41.0428312,386.866856 41.0612742,386.861099 C41.0845145,386.854063 41.1081812,386.848839 41.1316348,386.843082 C41.1466663,386.839458 41.1613781,386.83498 41.1767295,386.831782 C41.2559384,386.815684 41.3362133,386.807689 41.4163817,386.807582 C41.4175544,386.807582 41.4185138,386.807476 41.4194733,386.807476 L70.3764576,386.807476 C70.3775237,386.807476 70.3784831,386.807582 70.3795492,386.807582 C70.459611,386.807689 70.5397793,386.815578 70.6188816,386.831676 C70.6362586,386.835194 70.6529958,386.840311 70.6700529,386.844575 C70.6914809,386.849905 70.7131221,386.854703 70.7343369,386.861099 C70.7545922,386.867282 70.7741012,386.875278 70.7939301,386.882527 C70.8114136,386.888817 70.8290038,386.894467 70.8461675,386.90161 C70.8695144,386.911524 70.8917952,386.922931 70.9143959,386.934125 C70.9274019,386.940628 70.9406212,386.946065 70.9535206,386.952994 C71.0248406,386.991479 71.0915765,387.036787 71.1534085,387.088172 C71.1541547,387.088811 71.1550076,387.089238 71.1557538,387.089877 L82.7519161,396.763705 Z M40.2027691,400.888111 L40.2026625,400.888111 L40.2026625,390.623575 L31.5352042,397.854293 L36.5730184,403.91564 L40.2027691,400.888111 Z M61.7157155,389.240884 L50.0792559,389.240884 C50.936695,391.434214 53.717855,394.214414 55.8974324,395.972682 C58.0763702,394.212922 60.857317,391.431762 61.7157155,389.240884 Z M69.1596468,401.450356 L69.1596468,389.240884 L64.2577563,389.240884 C63.2220706,393.448657 57.352936,397.945548 56.6264102,398.48871 C56.4104247,398.650113 56.1540352,398.730921 55.8978588,398.730921 C55.6415759,398.730921 55.385293,398.650326 55.1693075,398.48871 C54.4429949,397.945655 48.5737537,393.448551 47.5379614,389.240884 L42.6360709,389.240884 L42.6360709,401.450356 C42.6360709,401.450462 42.6360709,401.450569 42.6360709,401.450676 L42.6360709,423.794516 L69.1596468,423.794516 L69.1596468,401.450676 C69.1596468,401.450569 69.1596468,401.450462 69.1596468,401.450356 Z M75.2226993,403.91564 L80.2604069,397.854293 L71.5929486,390.623575 L71.5929486,400.888111 L75.2226993,403.91564 Z M55.8978588,400.920946 C56.5694821,400.920946 57.114563,401.466027 57.114563,402.13765 C57.114563,402.809273 56.5694821,403.354354 55.8978588,403.354354 C55.2250629,403.354354 54.6811546,402.809273 54.6811546,402.13765 C54.6811546,401.466027 55.2250629,400.920946 55.8978588,400.920946 Z M55.8978588,405.300996 C56.5694821,405.300996 57.114563,405.846077 57.114563,406.5177 C57.114563,407.189323 56.5694821,407.734404 55.8978588,407.734404 C55.2250629,407.734404 54.6811546,407.189323 54.6811546,406.5177 C54.6811546,405.846077 55.2250629,405.300996 55.8978588,405.300996 Z M65.9963012,411.141027 C66.6679244,411.141027 67.2130054,411.686108 67.2130054,412.357731 C67.2130054,413.029354 66.6679244,413.574435 65.9963012,413.574435 C65.3246779,413.574435 64.779597,413.029354 64.779597,412.357731 C64.779597,411.686108 65.3246779,411.141027 65.9963012,411.141027 Z M65.9963012,415.460204 C66.6682443,415.460204 67.2130054,416.004965 67.2130054,416.676908 L67.2130054,420.996086 C67.2130054,421.668135 66.6683509,422.21279 65.9963012,422.21279 C65.3242515,422.21279 64.779597,421.668029 64.779597,420.996086 L64.779597,416.676908 C64.779597,416.004859 65.3243581,415.460204 65.9963012,415.460204 Z" id="shortsleeve-white"></path>
        </g>
    </g>
</svg>