<?xml version="1.0" encoding="UTF-8"?>
<svg width="56px" height="41px" viewBox="0 0 56 41" version="1.1" xmlns="http://www.w3.org/2000/svg" xmlns:xlink="http://www.w3.org/1999/xlink">
    <!-- Generator: Sketch 51.3 (57544) - http://www.bohemiancoding.com/sketch -->
    <title>shortsleeve</title>
    <desc>Created with Sketch.</desc>
    <defs></defs>
    <g id="Page-1" stroke="none" stroke-width="1" fill="none" fill-rule="evenodd">
        <g id="Clothing-Icons" transform="translate(-28.000000, -102.000000)" fill="#435761" fill-rule="nonzero">
            <path d="M82.7519161,112.769081 C83.2671471,113.199026 83.3371878,113.96489 82.9085215,114.480867 L76.3153131,122.413698 C76.108709,122.662198 75.8120221,122.818271 75.4902825,122.847587 C75.4532899,122.850999 75.416404,122.852705 75.379518,122.852705 C75.0959437,122.852705 74.8198319,122.753454 74.6002218,122.570303 L71.5931618,120.062163 L71.5931618,141.016596 C71.5931618,141.688646 71.0484007,142.2333 70.3764576,142.2333 L41.4195799,142.2333 C40.7475302,142.2333 40.2028757,141.688539 40.2028757,141.016596 L40.2028757,120.062163 L37.1958157,122.570303 C36.9762056,122.75356 36.7000938,122.852705 36.4165195,122.852705 C36.3796335,122.852705 36.3427476,122.850999 36.305755,122.847587 C35.9840155,122.818271 35.6872219,122.662092 35.4807244,122.413698 L28.887516,114.480867 C28.4585299,113.96489 28.5286772,113.198813 29.0439082,112.768974 L40.6399639,103.095147 C40.6407101,103.094507 40.641563,103.094081 40.6423092,103.093441 C40.7040346,103.042163 40.7707705,102.996855 40.8419839,102.95837 C40.856589,102.950481 40.8716206,102.944085 40.886439,102.936942 C40.9072273,102.926708 40.9278024,102.915941 40.949337,102.906986 C40.968313,102.899097 40.9877155,102.892914 41.0069047,102.885984 C41.0250279,102.879375 41.0428312,102.872232 41.0612742,102.866475 C41.0845145,102.859439 41.1081812,102.854215 41.1316348,102.848459 C41.1466663,102.844834 41.1613781,102.840356 41.1767295,102.837158 C41.2559384,102.821061 41.3362133,102.813065 41.4163817,102.812959 C41.4175544,102.812959 41.4185138,102.812852 41.4194733,102.812852 L70.3764576,102.812852 C70.3775237,102.812852 70.3784831,102.812959 70.3795492,102.812959 C70.459611,102.813065 70.5397793,102.820954 70.6188816,102.837052 C70.6362586,102.84057 70.6529958,102.845687 70.6700529,102.849951 C70.6914809,102.855281 70.7131221,102.860079 70.7343369,102.866475 C70.7545922,102.872658 70.7741012,102.880654 70.7939301,102.887903 C70.8114136,102.894193 70.8290038,102.899843 70.8461675,102.906986 C70.8695144,102.9169 70.8917952,102.928307 70.9143959,102.939501 C70.9274019,102.946004 70.9406212,102.951441 70.9535206,102.95837 C71.0248406,102.996855 71.0915765,103.042163 71.1534085,103.093548 C71.1541547,103.094187 71.1550076,103.094614 71.1557538,103.095254 L82.7519161,112.769081 Z M40.2027691,116.893487 L40.2026625,116.893487 L40.2026625,106.628951 L31.5352042,113.859669 L36.5730184,119.921016 L40.2027691,116.893487 Z M61.7157155,105.24626 L50.0792559,105.24626 C50.936695,107.43959 53.717855,110.219791 55.8974324,111.978058 C58.0763702,110.218298 60.857317,107.437138 61.7157155,105.24626 Z M69.1596468,117.455732 L69.1596468,105.24626 L64.2577563,105.24626 C63.2220706,109.454033 57.352936,113.950924 56.6264102,114.494086 C56.4104247,114.655489 56.1540352,114.736297 55.8978588,114.736297 C55.6415759,114.736297 55.385293,114.655702 55.1693075,114.494086 C54.4429949,113.951031 48.5737537,109.453927 47.5379614,105.24626 L42.6360709,105.24626 L42.6360709,117.455732 C42.6360709,117.455838 42.6360709,117.455945 42.6360709,117.456052 L42.6360709,139.799892 L69.1596468,139.799892 L69.1596468,117.456052 C69.1596468,117.455945 69.1596468,117.455838 69.1596468,117.455732 Z M75.2226993,119.921016 L80.2604069,113.859669 L71.5929486,106.628951 L71.5929486,116.893487 L75.2226993,119.921016 Z M55.8978588,116.926322 C56.5694821,116.926322 57.114563,117.471403 57.114563,118.143026 C57.114563,118.81465 56.5694821,119.359731 55.8978588,119.359731 C55.2250629,119.359731 54.6811546,118.81465 54.6811546,118.143026 C54.6811546,117.471403 55.2250629,116.926322 55.8978588,116.926322 Z M55.8978588,121.306372 C56.5694821,121.306372 57.114563,121.851453 57.114563,122.523076 C57.114563,123.194699 56.5694821,123.73978 55.8978588,123.73978 C55.2250629,123.73978 54.6811546,123.194699 54.6811546,122.523076 C54.6811546,121.851453 55.2250629,121.306372 55.8978588,121.306372 Z M65.9963012,127.146403 C66.6679244,127.146403 67.2130054,127.691484 67.2130054,128.363107 C67.2130054,129.03473 66.6679244,129.579811 65.9963012,129.579811 C65.3246779,129.579811 64.779597,129.03473 64.779597,128.363107 C64.779597,127.691484 65.3246779,127.146403 65.9963012,127.146403 Z M65.9963012,131.46558 C66.6682443,131.46558 67.2130054,132.010341 67.2130054,132.682284 L67.2130054,137.001462 C67.2130054,137.673511 66.6683509,138.218166 65.9963012,138.218166 C65.3242515,138.218166 64.779597,137.673405 64.779597,137.001462 L64.779597,132.682284 C64.779597,132.010235 65.3243581,131.46558 65.9963012,131.46558 Z" id="shortsleeve"></path>
        </g>
    </g>
</svg>