<?xml version="1.0" encoding="UTF-8"?>
<svg width="32px" height="31px" viewBox="0 0 32 31" version="1.1" xmlns="http://www.w3.org/2000/svg" xmlns:xlink="http://www.w3.org/1999/xlink">
    <!-- Generator: Sketch 51.3 (57544) - http://www.bohemiancoding.com/sketch -->
    <title>skirt</title>
    <desc>Created with Sketch.</desc>
    <defs></defs>
    <g id="Page-1" stroke="none" stroke-width="1" fill="none" fill-rule="evenodd">
        <g id="Clothing-Icons" transform="translate(-341.000000, -107.000000)" fill="#435761" fill-rule="nonzero">
            <path d="M372.639955,136.393395 C372.63977,136.377575 372.638472,136.361631 372.637545,136.345687 C372.636556,136.329311 372.635877,136.312811 372.634023,136.296682 C372.633714,136.294148 372.633837,136.291614 372.633466,136.289081 L370.528326,119.030019 C370.527584,119.023839 370.526039,119.017968 370.525174,119.01185 L369.631764,111.68548 L369.631764,108.233704 C369.631764,107.722081 369.216916,107.307109 368.705169,107.307109 L344.935096,107.307109 C344.423348,107.307109 344.0085,107.722019 344.0085,108.233704 L344.0085,111.685541 L341.00686,136.289204 C340.974725,136.552525 341.056978,136.816957 341.232854,137.015637 C341.40873,137.214317 341.661298,137.327963 341.926596,137.327963 L361.508697,137.327963 L371.710764,137.327963 C371.711382,137.327963 371.712062,137.328086 371.71268,137.328086 C371.713669,137.328086 371.714719,137.327901 371.715708,137.327901 C371.750562,137.327777 371.784921,137.325491 371.818725,137.321721 C371.821135,137.321474 371.823545,137.321536 371.826017,137.321227 C371.836832,137.319929 371.847214,137.317334 371.857966,137.315665 C371.875826,137.312884 371.893747,137.310227 371.911236,137.306395 C371.924275,137.303491 371.937006,137.299783 371.94986,137.296508 C371.966607,137.292058 371.983416,137.287794 371.999792,137.282541 C372.013697,137.27803 372.027107,137.272654 372.040764,137.267525 C372.055225,137.262025 372.069871,137.256772 372.083961,137.250592 C372.098669,137.244227 372.112759,137.236996 372.127034,137.229828 C372.139455,137.223648 372.151938,137.217716 372.163989,137.210918 C372.178697,137.202699 372.192787,137.193676 372.207062,137.184777 C372.218,137.177856 372.229124,137.171182 372.239753,137.163828 C372.253657,137.154187 372.267006,137.143805 372.280354,137.133547 C372.290613,137.125575 372.300933,137.117912 372.31082,137.10957 C372.323242,137.099126 372.334983,137.087879 372.346848,137.076755 C372.35686,137.067423 372.366871,137.058216 372.376511,137.04839 C372.387079,137.037452 372.396966,137.026081 372.407101,137.014648 C372.416927,137.003648 372.426753,136.992586 372.436023,136.981092 C372.444798,136.970092 372.452955,136.958659 372.461298,136.947289 C372.470629,136.934496 372.480084,136.921828 372.488798,136.90848 C372.49609,136.897356 372.502764,136.8858 372.509562,136.874305 C372.517966,136.860154 372.526433,136.846064 372.534096,136.831418 C372.540275,136.819553 372.545837,136.807317 372.551523,136.795204 C372.558444,136.780496 372.565489,136.765727 372.57173,136.750525 C372.577107,136.7373 372.581742,136.723643 372.586438,136.710109 C372.591629,136.695586 372.596882,136.681126 372.601332,136.666171 C372.605843,136.650907 372.609489,136.63521 372.613259,136.619637 C372.616596,136.606041 372.620118,136.59257 372.622775,136.578789 C372.626174,136.5613 372.628399,136.543564 372.630809,136.525766 C372.632478,136.513159 372.634579,136.500738 372.635691,136.487946 C372.63736,136.469592 372.637916,136.450991 372.638472,136.432328 C372.638843,136.421946 372.640079,136.411749 372.640079,136.401305 C372.640326,136.398586 372.639955,136.395991 372.639955,136.393395 Z M367.884927,112.668249 L368.561427,118.215586 L366.260079,118.215586 C363.004573,118.215586 360.303641,115.800406 359.852579,112.668249 L367.884927,112.668249 Z M345.861691,109.1603 L367.778759,109.1603 L367.778759,110.815182 L345.861691,110.815182 L345.861691,109.1603 Z M342.973017,135.474834 L344.330466,124.348519 C345.71659,129.225227 349.128815,133.257098 353.594506,135.474834 L342.973017,135.474834 Z M361.508635,135.474834 C352.685214,135.474834 345.506787,128.295974 345.506787,119.472058 L345.506787,114.70671 L345.755461,112.668249 L350.366624,112.668249 L350.366624,113.80885 C350.366624,121.581339 356.689955,127.904732 364.462506,127.904732 C364.974253,127.904732 365.389101,127.489822 365.389101,126.978137 C365.389101,126.466513 364.974253,126.051541 364.462506,126.051541 C357.711905,126.051541 352.219753,120.559513 352.219753,113.808789 L352.219753,112.668249 L357.983938,112.668249 C358.446371,116.825322 361.981264,120.068777 366.260017,120.068777 L368.788225,120.068777 L370.667371,135.474834 L361.508635,135.474834 Z" id="skirt"></path>
        </g>
    </g>
</svg>