<?xml version="1.0" encoding="UTF-8"?>
<svg width="32px" height="31px" viewBox="0 0 32 31" version="1.1" xmlns="http://www.w3.org/2000/svg" xmlns:xlink="http://www.w3.org/1999/xlink">
    <!-- Generator: Sketch 51.3 (57544) - http://www.bohemiancoding.com/sketch -->
    <title>skirt-white</title>
    <desc>Created with Sketch.</desc>
    <defs></defs>
    <g id="Page-1" stroke="none" stroke-width="1" fill="none" fill-rule="evenodd">
        <g id="Clothing-Icons" transform="translate(-341.000000, -391.000000)" fill="#FFFFFF" fill-rule="nonzero">
            <path d="M372.639955,420.388019 C372.63977,420.372199 372.638472,420.356255 372.637545,420.340311 C372.636556,420.323935 372.635877,420.307435 372.634023,420.291306 C372.633714,420.288772 372.633837,420.286238 372.633466,420.283705 L370.528326,403.024643 C370.527584,403.018463 370.526039,403.012592 370.525174,403.006474 L369.631764,395.680103 L369.631764,392.228328 C369.631764,391.716704 369.216916,391.301733 368.705169,391.301733 L344.935096,391.301733 C344.423348,391.301733 344.0085,391.716643 344.0085,392.228328 L344.0085,395.680165 L341.00686,420.283828 C340.974725,420.547148 341.056978,420.811581 341.232854,421.010261 C341.40873,421.208941 341.661298,421.322587 341.926596,421.322587 L361.508697,421.322587 L371.710764,421.322587 C371.711382,421.322587 371.712062,421.32271 371.71268,421.32271 C371.713669,421.32271 371.714719,421.322525 371.715708,421.322525 C371.750562,421.322401 371.784921,421.320115 371.818725,421.316345 C371.821135,421.316098 371.823545,421.31616 371.826017,421.315851 C371.836832,421.314553 371.847214,421.311957 371.857966,421.310289 C371.875826,421.307508 371.893747,421.304851 371.911236,421.301019 C371.924275,421.298115 371.937006,421.294407 371.94986,421.291132 C371.966607,421.286682 371.983416,421.282418 371.999792,421.277165 C372.013697,421.272654 372.027107,421.267278 372.040764,421.262148 C372.055225,421.256648 372.069871,421.251396 372.083961,421.245216 C372.098669,421.238851 372.112759,421.23162 372.127034,421.224452 C372.139455,421.218272 372.151938,421.212339 372.163989,421.205542 C372.178697,421.197323 372.192787,421.1883 372.207062,421.179401 C372.218,421.17248 372.229124,421.165806 372.239753,421.158452 C372.253657,421.148811 372.267006,421.138429 372.280354,421.128171 C372.290613,421.120199 372.300933,421.112536 372.31082,421.104193 C372.323242,421.09375 372.334983,421.082502 372.346848,421.071379 C372.35686,421.062047 372.366871,421.052839 372.376511,421.043014 C372.387079,421.032075 372.396966,421.020705 372.407101,421.009272 C372.416927,420.998272 372.426753,420.98721 372.436023,420.975716 C372.444798,420.964716 372.452955,420.953283 372.461298,420.941912 C372.470629,420.92912 372.480084,420.916452 372.488798,420.903103 C372.49609,420.89198 372.502764,420.880424 372.509562,420.868929 C372.517966,420.854778 372.526433,420.840688 372.534096,420.826042 C372.540275,420.814177 372.545837,420.801941 372.551523,420.789828 C372.558444,420.77512 372.565489,420.760351 372.57173,420.745148 C372.577107,420.731924 372.581742,420.718266 372.586438,420.704733 C372.591629,420.69021 372.596882,420.67575 372.601332,420.660794 C372.605843,420.64553 372.609489,420.629834 372.613259,420.614261 C372.616596,420.600665 372.620118,420.587193 372.622775,420.573412 C372.626174,420.555924 372.628399,420.538188 372.630809,420.52039 C372.632478,420.507783 372.634579,420.495362 372.635691,420.48257 C372.63736,420.464216 372.637916,420.445615 372.638472,420.426952 C372.638843,420.41657 372.640079,420.406373 372.640079,420.395929 C372.640326,420.39321 372.639955,420.390615 372.639955,420.388019 Z M367.884927,396.662873 L368.561427,402.21021 L366.260079,402.21021 C363.004573,402.21021 360.303641,399.79503 359.852579,396.662873 L367.884927,396.662873 Z M345.861691,393.154924 L367.778759,393.154924 L367.778759,394.809806 L345.861691,394.809806 L345.861691,393.154924 Z M342.973017,419.469457 L344.330466,408.343143 C345.71659,413.219851 349.128815,417.251721 353.594506,419.469457 L342.973017,419.469457 Z M361.508635,419.469457 C352.685214,419.469457 345.506787,412.290598 345.506787,403.466682 L345.506787,398.701334 L345.755461,396.662873 L350.366624,396.662873 L350.366624,397.803474 C350.366624,405.575963 356.689955,411.899356 364.462506,411.899356 C364.974253,411.899356 365.389101,411.484446 365.389101,410.972761 C365.389101,410.461137 364.974253,410.046165 364.462506,410.046165 C357.711905,410.046165 352.219753,404.554137 352.219753,397.803412 L352.219753,396.662873 L357.983938,396.662873 C358.446371,400.819946 361.981264,404.063401 366.260017,404.063401 L368.788225,404.063401 L370.667371,419.469457 L361.508635,419.469457 Z" id="skirt-white"></path>
        </g>
    </g>
</svg>