<?xml version="1.0" encoding="UTF-8"?>
<svg width="40px" height="32px" viewBox="0 0 40 32" version="1.1" xmlns="http://www.w3.org/2000/svg" xmlns:xlink="http://www.w3.org/1999/xlink">
    <!-- Generator: Sketch 51.3 (57544) - http://www.bohemiancoding.com/sketch -->
    <title>socks</title>
    <desc>Created with Sketch.</desc>
    <defs></defs>
    <g id="Page-1" stroke="none" stroke-width="1" fill="none" fill-rule="evenodd">
        <g id="Clothing-Icons" transform="translate(-336.000000, -229.000000)" fill="#435761" fill-rule="nonzero">
            <path d="M374.331973,229.569621 L364.151825,229.569621 C363.611428,229.569621 363.173241,230.007809 363.173241,230.548205 L363.173241,245.334242 L358.450391,250.056108 C356.084919,252.422791 356.084994,256.272669 358.450618,258.638293 C359.597229,259.784904 361.121127,260.416237 362.741786,260.416237 C364.363656,260.416237 365.887705,259.784677 367.032954,258.638293 L375.023979,250.648251 C375.207592,250.46479 375.310708,250.215813 375.310708,249.95632 L375.310708,230.548205 C375.310481,230.007733 374.872444,229.569621 374.331973,229.569621 Z M373.353389,244.105243 C370.546097,244.573314 368.398887,247.018072 368.398887,249.956245 C368.398887,250.496641 368.837074,250.934829 369.37747,250.934829 C369.917867,250.934829 370.356054,250.496641 370.356054,249.956245 C370.356054,248.101588 371.632791,246.539636 373.353389,246.102508 L373.353389,249.550891 L365.648638,257.254733 C364.872807,258.031397 363.840433,258.459144 362.741786,258.459144 C361.643896,258.459144 360.611446,258.031321 359.834631,257.254355 C358.231902,255.651626 358.232054,253.043229 359.834556,251.439894 L364.843756,246.431527 C365.027368,246.248066 365.130484,245.999089 365.130484,245.739596 L365.130484,236.494984 L373.353464,236.494984 L373.353464,244.105243 L373.353389,244.105243 Z M373.353389,234.537968 L365.130409,234.537968 L365.130409,231.526789 L373.353389,231.526789 L373.353389,234.537968 Z M347.428063,236.495514 C346.887606,236.495514 346.449479,236.057387 346.449479,235.51693 C346.449479,234.976473 346.887606,234.538346 347.428063,234.538346 C347.96852,234.538346 348.406647,234.976473 348.406647,235.51693 C348.406647,236.057387 347.96852,236.495514 347.428063,236.495514 Z M354.23117,229.569621 L344.051173,229.569621 C343.510777,229.569621 343.072589,230.007809 343.072589,230.548205 L343.072589,245.334242 L338.349588,250.056108 C335.984191,252.422791 335.984267,256.272669 338.349815,258.638293 C339.496426,259.784904 341.020324,260.416237 342.641059,260.416237 C344.262777,260.416237 345.786902,259.784677 346.932227,258.638293 L354.923176,250.648251 C355.106789,250.46479 355.209905,250.215813 355.209905,249.95632 L355.209905,230.548205 C355.209754,230.007733 354.771642,229.569621 354.23117,229.569621 Z M353.252586,234.537968 L350.78778,234.537968 C350.247383,234.537968 349.809196,234.976155 349.809196,235.516552 C349.809196,236.056948 350.247383,236.495136 350.78778,236.495136 L353.252586,236.495136 L353.252586,244.105394 C350.445294,244.573465 348.298084,247.018223 348.298084,249.956396 C348.298084,250.496792 348.736271,250.93498 349.276668,250.93498 C349.817064,250.93498 350.255251,250.496792 350.255251,249.956396 C350.255251,248.101739 351.531988,246.539787 353.252586,246.102659 L353.252586,249.551042 L345.547987,257.254733 C344.772004,258.031397 343.739706,258.459144 342.641059,258.459144 C341.543169,258.459144 340.510643,258.031321 339.733828,257.254355 C338.131251,255.651626 338.131326,253.043229 339.733753,251.43997 L344.743104,246.431602 C344.926716,246.24799 345.029833,245.999089 345.029833,245.73952 L345.029833,231.526789 L353.252661,231.526789 L353.252661,234.537968 L353.252586,234.537968 Z" id="socks"></path>
        </g>
    </g>
</svg>