<?xml version="1.0" encoding="UTF-8"?>
<svg width="40px" height="32px" viewBox="0 0 40 32" version="1.1" xmlns="http://www.w3.org/2000/svg" xmlns:xlink="http://www.w3.org/1999/xlink">
    <!-- Generator: Sketch 51.3 (57544) - http://www.bohemiancoding.com/sketch -->
    <title>socks-white</title>
    <desc>Created with Sketch.</desc>
    <defs></defs>
    <g id="Page-1" stroke="none" stroke-width="1" fill="none" fill-rule="evenodd">
        <g id="Clothing-Icons" transform="translate(-336.000000, -513.000000)" fill="#FFFFFF" fill-rule="nonzero">
            <path d="M374.331973,513.564245 L364.151825,513.564245 C363.611428,513.564245 363.173241,514.002433 363.173241,514.542829 L363.173241,529.328865 L358.450391,534.050732 C356.084919,536.417414 356.084994,540.267293 358.450618,542.632917 C359.597229,543.779528 361.121127,544.41086 362.741786,544.41086 C364.363656,544.41086 365.887705,543.779301 367.032954,542.632917 L375.023979,534.642875 C375.207592,534.459414 375.310708,534.210437 375.310708,533.950944 L375.310708,514.542829 C375.310481,514.002357 374.872444,513.564245 374.331973,513.564245 Z M373.353389,528.099867 C370.546097,528.567938 368.398887,531.012696 368.398887,533.950868 C368.398887,534.491265 368.837074,534.929452 369.37747,534.929452 C369.917867,534.929452 370.356054,534.491265 370.356054,533.950868 C370.356054,532.096212 371.632791,530.53426 373.353389,530.097131 L373.353389,533.545515 L365.648638,541.249357 C364.872807,542.026021 363.840433,542.453768 362.741786,542.453768 C361.643896,542.453768 360.611446,542.025945 359.834631,541.248979 C358.231902,539.64625 358.232054,537.037853 359.834556,535.434518 L364.843756,530.42615 C365.027368,530.24269 365.130484,529.993712 365.130484,529.734219 L365.130484,520.489608 L373.353464,520.489608 L373.353464,528.099867 L373.353389,528.099867 Z M373.353389,518.532592 L365.130409,518.532592 L365.130409,515.521413 L373.353389,515.521413 L373.353389,518.532592 Z M347.428063,520.490138 C346.887606,520.490138 346.449479,520.052011 346.449479,519.511554 C346.449479,518.971097 346.887606,518.53297 347.428063,518.53297 C347.96852,518.53297 348.406647,518.971097 348.406647,519.511554 C348.406647,520.052011 347.96852,520.490138 347.428063,520.490138 Z M354.23117,513.564245 L344.051173,513.564245 C343.510777,513.564245 343.072589,514.002433 343.072589,514.542829 L343.072589,529.328865 L338.349588,534.050732 C335.984191,536.417414 335.984267,540.267293 338.349815,542.632917 C339.496426,543.779528 341.020324,544.41086 342.641059,544.41086 C344.262777,544.41086 345.786902,543.779301 346.932227,542.632917 L354.923176,534.642875 C355.106789,534.459414 355.209905,534.210437 355.209905,533.950944 L355.209905,514.542829 C355.209754,514.002357 354.771642,513.564245 354.23117,513.564245 Z M353.252586,518.532592 L350.78778,518.532592 C350.247383,518.532592 349.809196,518.970779 349.809196,519.511176 C349.809196,520.051572 350.247383,520.48976 350.78778,520.48976 L353.252586,520.48976 L353.252586,528.100018 C350.445294,528.568089 348.298084,531.012847 348.298084,533.95102 C348.298084,534.491416 348.736271,534.929604 349.276668,534.929604 C349.817064,534.929604 350.255251,534.491416 350.255251,533.95102 C350.255251,532.096363 351.531988,530.534411 353.252586,530.097283 L353.252586,533.545666 L345.547987,541.249357 C344.772004,542.026021 343.739706,542.453768 342.641059,542.453768 C341.543169,542.453768 340.510643,542.025945 339.733828,541.248979 C338.131251,539.64625 338.131326,537.037853 339.733753,535.434594 L344.743104,530.426226 C344.926716,530.242614 345.029833,529.993712 345.029833,529.734144 L345.029833,515.521413 L353.252661,515.521413 L353.252661,518.532592 L353.252586,518.532592 Z" id="socks-white"></path>
        </g>
    </g>
</svg>