<?xml version="1.0" encoding="UTF-8"?>
<svg width="31px" height="18px" viewBox="0 0 31 18" version="1.1" xmlns="http://www.w3.org/2000/svg" xmlns:xlink="http://www.w3.org/1999/xlink">
    <!-- Generator: Sketch 51.3 (57544) - http://www.bohemiancoding.com/sketch -->
    <title>underwear-white</title>
    <desc>Created with Sketch.</desc>
    <defs></defs>
    <g id="Page-1" stroke="none" stroke-width="1" fill="none" fill-rule="evenodd">
        <g id="Clothing-Icons" transform="translate(-241.000000, -521.000000)" fill="#FFFFFF" fill-rule="nonzero">
            <path d="M270.663522,521.262204 C270.330802,521.037263 269.908106,520.992275 269.535621,521.141738 C269.47816,521.164765 263.709769,523.447005 256.455491,523.447005 C249.226266,523.447005 243.432076,521.164659 243.375362,521.141738 C243.002664,520.992275 242.580181,521.037263 242.247461,521.262204 C241.914741,521.487038 241.715493,521.862507 241.715493,522.264095 L241.715493,527.944749 C241.715493,528.541001 242.151728,529.04845 242.740837,529.140132 C242.831667,529.154204 251.840906,530.63444 254.145747,537.805031 C254.30651,538.305124 254.771849,538.644241 255.297208,538.644241 L257.614415,538.644241 C258.139773,538.644241 258.605006,538.305018 258.765875,537.805031 C261.070716,530.63444 270.079956,529.154204 270.168973,529.140238 C270.759681,529.050155 271.196023,528.542174 271.196023,527.944642 L271.196023,522.264095 C271.19549,521.862614 270.996242,521.487038 270.663522,521.262204 Z M268.7769,526.960341 L268.776794,526.960341 C267.746012,527.207349 266.054694,527.702431 264.227026,528.607737 C260.611347,530.398839 258.048624,533.020408 256.765184,536.225437 L256.145798,536.225437 C254.862252,533.020408 252.299423,530.398732 248.683957,528.607737 C246.856289,527.702431 245.164971,527.207242 244.134189,526.960341 L244.134189,523.962449 C246.294151,524.640895 250.36696,525.69108 255.246143,525.84566 L255.246143,527.619385 C255.246143,528.28717 255.787706,528.828733 256.455598,528.828733 C257.123383,528.828733 257.664946,528.28717 257.664946,527.619385 L257.664946,525.84566 C262.544023,525.690973 266.616832,524.640895 268.7769,523.962449 L268.7769,526.960341 Z" id="underwear-white"></path>
        </g>
    </g>
</svg>