<?xml version="1.0" encoding="UTF-8"?>
<svg width="31px" height="18px" viewBox="0 0 31 18" version="1.1" xmlns="http://www.w3.org/2000/svg" xmlns:xlink="http://www.w3.org/1999/xlink">
    <!-- Generator: Sketch 51.3 (57544) - http://www.bohemiancoding.com/sketch -->
    <title>underwear</title>
    <desc>Created with Sketch.</desc>
    <defs></defs>
    <g id="Page-1" stroke="none" stroke-width="1" fill="none" fill-rule="evenodd">
        <g id="Clothing-Icons" transform="translate(-241.000000, -237.000000)" fill="#435761" fill-rule="nonzero">
            <path d="M270.663522,237.26758 C270.330802,237.042639 269.908106,236.997651 269.535621,237.147114 C269.47816,237.170141 263.709769,239.452381 256.455491,239.452381 C249.226266,239.452381 243.432076,237.170035 243.375362,237.147114 C243.002664,236.997651 242.580181,237.042639 242.247461,237.26758 C241.914741,237.492414 241.715493,237.867883 241.715493,238.269471 L241.715493,243.950125 C241.715493,244.546377 242.151728,245.053826 242.740837,245.145508 C242.831667,245.15958 251.840906,246.639816 254.145747,253.810408 C254.30651,254.3105 254.771849,254.649617 255.297208,254.649617 L257.614415,254.649617 C258.139773,254.649617 258.605006,254.310394 258.765875,253.810408 C261.070716,246.639816 270.079956,245.15958 270.168973,245.145614 C270.759681,245.055532 271.196023,244.54755 271.196023,243.950018 L271.196023,238.269471 C271.19549,237.86799 270.996242,237.492414 270.663522,237.26758 Z M268.7769,242.965717 L268.776794,242.965717 C267.746012,243.212725 266.054694,243.707808 264.227026,244.613113 C260.611347,246.404215 258.048624,249.025785 256.765184,252.230814 L256.145798,252.230814 C254.862252,249.025785 252.299423,246.404108 248.683957,244.613113 C246.856289,243.707808 245.164971,243.212619 244.134189,242.965717 L244.134189,239.967825 C246.294151,240.646271 250.36696,241.696456 255.246143,241.851036 L255.246143,243.624761 C255.246143,244.292546 255.787706,244.834109 256.455598,244.834109 C257.123383,244.834109 257.664946,244.292546 257.664946,243.624761 L257.664946,241.851036 C262.544023,241.696349 266.616832,240.646271 268.7769,239.967825 L268.7769,242.965717 Z" id="underwear"></path>
        </g>
    </g>
</svg>